<?xml version="1.0" standalone="no"?>
<!DOCTYPE svg PUBLIC "-//W3C//DTD SVG 1.1//EN" "http://www.w3.org/Graphics/SVG/1.1/DTD/svg11.dtd" >
<svg xmlns="http://www.w3.org/2000/svg">
<metadata></metadata>
<defs>
<font id="itcfranklingothic_lt_bookcnRg" horiz-adv-x="1046" >
<font-face units-per-em="2048" ascent="1638" descent="-410" />
<missing-glyph horiz-adv-x="512" />
<glyph horiz-adv-x="2048" />
<glyph horiz-adv-x="2048" />
<glyph unicode="&#xd;" horiz-adv-x="512" />
<glyph unicode=" "  horiz-adv-x="512" />
<glyph unicode="&#x09;" horiz-adv-x="512" />
<glyph unicode="&#xa0;" horiz-adv-x="512" />
<glyph unicode="!" horiz-adv-x="698" d="M246 1366h207l-54 -1032h-100zM256 0v209h186v-209h-186z" />
<glyph unicode="&#x22;" horiz-adv-x="698" d="M125 1366h168l-29 -528h-110zM406 1366h167l-28 -528h-111z" />
<glyph unicode="#" d="M20 432l21 117h209l55 303h-211l23 117h209l71 397h123l-71 -397h245l74 397h123l-72 -397h209l-20 -117h-211l-54 -303h209l-20 -117h-211l-78 -432h-123l78 432h-246l-78 -432h-124l79 432h-209zM373 549h245l56 303h-246z" />
<glyph unicode="$" d="M109 350l131 62q20 -68 47.5 -113t58.5 -72.5t63.5 -41t67.5 -17.5v475q-33 8 -86 27.5t-103 59.5t-87 103.5t-37 161.5q0 86 28.5 149.5t73.5 105.5t100.5 64.5t110.5 26.5v136h113v-136q141 -10 214 -74.5t114 -187.5l-119 -49q-37 86 -81 135t-128 56v-443 q45 -10 104.5 -29.5t112.5 -58.5t91 -104.5t38 -169.5q0 -27 -5 -67t-20.5 -85t-47.5 -88t-83 -76q-55 -35 -104 -46t-86 -15v-176h-113v176q-86 12 -145.5 37.5t-101.5 63.5t-70.5 90.5t-50.5 119.5zM303 1010q0 -57 19.5 -94t46 -61t56.5 -35t52 -17v416q-51 -10 -85 -30 t-53.5 -47.5t-27.5 -61t-8 -70.5zM590 168q61 6 102 28.5t63.5 55.5t32 69.5t9.5 71.5q0 68 -22.5 109t-55.5 64.5t-69 34.5t-60 17v-450z" />
<glyph unicode="%" horiz-adv-x="1394" d="M98 1028q0 160 73 257t196 97q61 0 111 -25.5t85 -72.5t53.5 -112.5t18.5 -143.5q0 -160 -70.5 -258t-197.5 -98q-123 0 -196 97t-73 259zM229 1026q0 -39 3.5 -83t17.5 -81t41.5 -61.5t75.5 -24.5q43 0 70.5 20.5t42 55.5t19.5 80t5 94q0 111 -27.5 181.5t-109.5 70.5 q-47 0 -75 -24.5t-42 -61.5t-17.5 -82t-3.5 -84zM299 0l682 1366h121l-684 -1366h-119zM762 338q0 78 18.5 143.5t53 112.5t85 72.5t111.5 25.5t111.5 -25.5t84.5 -72.5t52 -112.5t18 -143.5q0 -162 -71.5 -258t-194.5 -96t-195.5 96t-72.5 258zM893 338q0 -111 27.5 -180.5 t109.5 -69.5q45 0 71.5 21.5t41 57.5t18.5 80t4 91q0 43 -4 88t-18.5 81t-41 58.5t-71.5 22.5h-2q-43 0 -69.5 -21.5t-41 -56.5t-19.5 -80t-5 -92z" />
<glyph unicode="&#x26;" horiz-adv-x="1255" d="M109 375q0 98 33.5 169.5t80.5 120t96.5 77t77.5 44.5q-16 29 -36.5 66t-37 79t-27.5 87t-11 90q0 49 18.5 100.5t55 92t91 67.5t125.5 27q68 0 119 -21.5t85 -58.5t50.5 -86t16.5 -105q0 -84 -31 -147.5t-74 -109.5t-87 -76.5t-68 -45.5l268 -405q43 68 77 160t56 245 l125 -32q-14 -84 -30.5 -151.5t-38 -124t-49 -109t-64.5 -105.5q23 -29 40 -49t33.5 -32.5t36 -18.5t43.5 -6q25 0 40.5 4t29.5 8v-129q-25 -8 -52.5 -15.5t-60.5 -7.5q-37 0 -65.5 10.5t-52 29t-45 44t-43.5 56.5q-20 -18 -50 -44t-71 -48.5t-93.5 -38t-119.5 -15.5 q-84 0 -156 30t-124 83t-81.5 127t-29.5 164zM268 379q0 -129 69 -206t179 -77q74 0 138.5 36t111.5 91l-303 461q-33 -20 -67 -47t-62.5 -62.5t-47 -84t-18.5 -111.5zM426 1114q0 -37 10 -78t25.5 -77.5t31 -67.5t25.5 -47q80 47 134.5 112.5t54.5 157.5q0 76 -40 119 t-100 43q-57 0 -99 -43t-42 -119z" />
<glyph unicode="'" horiz-adv-x="417" d="M125 1366h168l-29 -528h-110z" />
<glyph unicode="(" horiz-adv-x="628" d="M109 512q0 164 34.5 301t83.5 245.5t99.5 186.5t81.5 121h120q-139 -217 -196.5 -437t-57.5 -417q0 -195 56.5 -414t197.5 -440h-120q-35 49 -85.5 127t-99.5 190q-72 164 -93 300.5t-21 236.5z" />
<glyph unicode=")" horiz-adv-x="628" d="M100 -342q143 225 198.5 443t55.5 411q0 195 -56 413t-198 441h121q31 -43 81 -120t99.5 -185.5t84 -246.5t34.5 -302q0 -117 -24.5 -252t-89.5 -285q-49 -115 -99.5 -191.5t-85.5 -125.5h-121z" />
<glyph unicode="*" d="M180 893l246 111l-246 110l60 123l237 -156l-20 285h133l-21 -285l238 156l59 -123l-245 -110l245 -111l-59 -123l-238 156l21 -285h-133l20 285l-237 -156z" />
<glyph unicode="+" d="M104 621v124h353v357h133v-357h352v-124h-352v-357h-133v357h-353z" />
<glyph unicode="," horiz-adv-x="489" d="M133 -260l121 260h-84v221h186v-221l-133 -260h-90z" />
<glyph unicode="-" horiz-adv-x="593" d="M72 446v123h450v-123h-450z" />
<glyph unicode="." horiz-adv-x="489" d="M152 0v221h186v-221h-186z" />
<glyph unicode="/" horiz-adv-x="907" d="M-45 -342l688 1708h129l-690 -1708h-127z" />
<glyph unicode="0" d="M86 668q0 57 4 125.5t14.5 137t28 133t43.5 116.5q18 35 48 72.5t72 69.5t98 52.5t130 20.5q100 0 172 -38t120 -98.5t77 -137.5t44 -154.5t19.5 -148t4.5 -120.5q0 -195 -36 -356.5t-130 -259.5q-47 -49 -117 -80t-154 -31q-102 0 -175 39t-122 100.5t-76.5 139.5 t-42 154.5t-18.5 146.5t-4 117zM252 682q0 -27 1 -80t9 -118.5t24.5 -134t46 -125t77 -92.5t114.5 -36q68 0 114 36t76.5 92.5t46 125t24 133t9.5 118.5t1 81t-1 82t-9.5 119.5t-24 133t-46 125t-76.5 92.5t-114 36t-115 -36t-76.5 -92.5t-46 -125t-24.5 -133t-9 -119.5 t-1 -82z" />
<glyph unicode="1" d="M236 952v164q104 59 173.5 128t122.5 138h113v-1259h219v-123h-616v123h231v1032q-35 -47 -88 -95t-155 -108z" />
<glyph unicode="2" d="M74 0v137q68 57 138.5 122t141 132.5t137 138t121.5 142.5q18 25 40 57.5t40.5 72.5t30.5 84t12 93q0 35 -10 83t-38 91t-77 72.5t-127 29.5q-82 0 -132 -34.5t-77.5 -81.5t-39 -96.5t-15.5 -77.5l-145 30q16 72 40.5 142.5t96.5 142.5q43 41 86 64.5t83 35t71.5 13.5 t50.5 2q92 0 166.5 -30t126 -83t79 -128t27.5 -165q0 -74 -20.5 -152.5t-88 -177t-193.5 -224.5t-337 -294h639v-141h-827z" />
<glyph unicode="3" d="M47 307l135 47q6 -25 15.5 -51.5t24 -54t37 -54t54.5 -47.5q78 -49 168 -49q31 0 76 10.5t88 40t74 85t31 147.5q0 100 -38 154.5t-90.5 79t-108.5 28.5t-93 4h-88v123h88q68 0 117 6t94 41q49 39 66.5 91.5t17.5 105.5q0 123 -64.5 189.5t-167.5 66.5q-74 0 -121 -25.5 t-75.5 -62.5t-44 -77t-23.5 -67l-131 41q8 33 28.5 86.5t64.5 104.5t119 88t196 37q82 0 153.5 -23.5t122.5 -71t81 -117t30 -159.5q0 -78 -21.5 -129t-55.5 -85t-73 -55.5t-71 -35.5q25 -6 68.5 -21.5t88.5 -52.5t78 -101.5t33 -166.5q0 -80 -28 -152.5t-83 -129 t-139 -89.5t-197 -33q-39 0 -85 6.5t-93 21.5t-92 43t-82 73q-43 51 -58.5 99t-25.5 91z" />
<glyph unicode="4" d="M72 330v110l516 955h205v-942h184v-123h-184v-330h-156v330h-565zM223 453h414v813z" />
<glyph unicode="5" d="M100 295l142 53q12 -39 29.5 -81t47 -76.5t76.5 -57t121 -22.5q63 0 112.5 20.5t80.5 56.5q47 59 62 134t15 137q0 66 -12 124t-42 103t-79 70.5t-123 25.5q-68 0 -112.5 -20.5t-75.5 -49t-49.5 -60t-28.5 -54.5l-114 29l36 739h695l-15 -141h-551l-20 -437 q20 25 42.5 48.5t53.5 42t72 31t100 12.5q106 0 180 -41t120 -105.5t65.5 -146.5t19.5 -164q0 -141 -41 -236.5t-105.5 -152t-142 -81t-151.5 -24.5q-96 0 -168 30t-121 75q-61 57 -83.5 112.5t-35.5 106.5z" />
<glyph unicode="6" d="M115 641q0 158 28.5 296t87 239.5t146.5 160t209 58.5q104 0 171.5 -35t108.5 -83t62.5 -100.5t34.5 -86.5l-144 -50q-12 41 -29.5 80t-44 69t-65.5 48t-96 18q-16 0 -48 -3t-68 -20.5t-72 -56t-62 -108.5q-41 -113 -53.5 -222.5t-14.5 -189.5q12 27 32.5 68t57.5 80 t94.5 65.5t141.5 26.5q86 0 156.5 -34t121 -94t79 -144t28.5 -183q0 -90 -25.5 -174t-77 -149.5t-128 -105.5t-181.5 -40q-135 0 -222 65.5t-144 170.5q-31 59 -48.5 127.5t-24.5 131t-9 110t-2 65.5zM301 438q0 -49 14.5 -106.5t46 -106.5t84 -81.5t127.5 -32.5 q61 0 103.5 20.5t69 51t41 68.5t21.5 73.5t8 64.5t1 41q0 166 -69.5 246t-169.5 80q-86 0 -140.5 -37t-85 -87t-41 -104.5t-10.5 -89.5z" />
<glyph unicode="7" d="M166 1225l14 141h770v-100q-29 -37 -65.5 -91.5t-78.5 -131t-86 -182t-87 -247.5q-35 -117 -53.5 -214t-26.5 -172.5t-9 -133t-1 -94.5h-170q0 37 1 80t5 97t15.5 122t31.5 152q33 137 73 244.5t86 198.5t97 171t109 160h-625z" />
<glyph unicode="8" d="M76 342q0 90 31.5 154.5t76.5 107.5t92.5 68.5t77.5 40.5q-31 16 -69.5 41.5t-74.5 63.5t-59.5 91.5t-23.5 126.5q0 70 24.5 134.5t76 114.5t128 80t179.5 30q92 0 163.5 -26t122.5 -72t78 -109.5t27 -138.5q0 -76 -28 -130.5t-66.5 -91t-80.5 -59.5t-69 -35 q33 -16 83 -42.5t95 -71t78 -109t33 -152.5q0 -74 -29 -144.5t-86 -123.5t-141 -86t-197 -33q-117 0 -199.5 30t-137 80t-80 117.5t-25.5 143.5zM229 348q0 -66 25 -113t65.5 -77.5t93 -46t107.5 -15.5q43 0 93.5 11.5t92.5 39t70.5 73.5t28.5 116q0 119 -80 186.5 t-217 116.5q-35 -12 -83 -32.5t-91 -54.5t-74 -83t-31 -121zM293 1055q0 -70 26.5 -117t63.5 -78t74.5 -47.5t60.5 -24.5q37 14 83 34t85 49.5t65.5 73.5t26.5 106q0 94 -67.5 156.5t-180.5 62.5q-106 0 -171.5 -60.5t-65.5 -154.5z" />
<glyph unicode="9" d="M74 924q0 106 31.5 193t88 148.5t134.5 95.5t170 34q98 0 168.5 -32t119 -85t76 -122t43 -140.5t19.5 -141t4 -126.5q0 -121 -17.5 -257.5t-70 -252t-146.5 -191.5t-248 -76q-92 0 -153.5 28t-100 70t-62.5 89t-38 86l139 63q12 -33 26.5 -67.5t40.5 -63.5t65.5 -47 t99.5 -18q88 0 147.5 46t94.5 150q41 115 50 215.5t13 171.5q-12 -29 -33.5 -67.5t-57.5 -74.5t-90.5 -60.5t-129.5 -24.5q-70 0 -138.5 27.5t-123 85t-88 143.5t-33.5 201zM233 924q0 -80 20.5 -139.5t56.5 -99.5t82 -59.5t97 -19.5q63 0 110.5 29t79.5 75t47 104t15 118 q0 51 -13 108.5t-42 105.5t-76.5 78.5t-115.5 30.5q-66 0 -115 -25.5t-82 -70.5t-48.5 -105.5t-15.5 -129.5z" />
<glyph unicode=":" horiz-adv-x="489" d="M152 0v221h186v-221h-186zM152 788v222h186v-222h-186z" />
<glyph unicode=";" horiz-adv-x="489" d="M133 -260l121 260h-84v221h186v-221l-133 -260h-90zM170 788v222h186v-222h-186z" />
<glyph unicode="&#x3c;" d="M80 623v120l887 410v-135l-740 -336l740 -334v-137z" />
<glyph unicode="=" d="M104 502v125h838v-125h-838zM104 739v125h838v-125h-838z" />
<glyph unicode="&#x3e;" d="M80 211v137l741 334l-741 336v135l887 -412v-118z" />
<glyph unicode="?" horiz-adv-x="1011" d="M80 995q2 23 7 53.5t15.5 66.5t29 74t46.5 75q53 70 137 100.5t174 30.5q78 0 148 -22.5t122 -69t82.5 -114t30.5 -159.5q0 -68 -14 -119t-42 -94t-66.5 -80t-85.5 -73q-53 -43 -84 -74t-45.5 -63.5t-16.5 -75.5t2 -109h-147q0 72 3 126t15 98t37 80t70 71q53 41 93 73.5 t65.5 67.5t38 75t12.5 97q0 45 -10.5 88t-37 77t-69.5 54.5t-107 20.5q-109 0 -177 -72t-83 -242zM352 0v209h187v-209h-187z" />
<glyph unicode="@" horiz-adv-x="1185" d="M8 662q0 143 39 276t118 234.5t196.5 162t277.5 60.5q115 0 214 -39t172 -117t114 -192.5t41 -268.5q0 -119 -25 -211t-66.5 -155.5t-99 -97t-123.5 -33.5q-47 0 -74.5 12t-43 30.5t-21.5 39t-8 36.5q-10 -20 -23.5 -42.5t-33 -41t-49 -31t-72.5 -12.5q-59 0 -103.5 25 t-73 69t-42 104t-13.5 132q0 92 20.5 174t59.5 143.5t93.5 97.5t121.5 36q47 0 78 -16.5t49.5 -39t27.5 -47t15 -41.5l19 127h104l-59 -426q0 -8 -3.5 -26.5t-5.5 -40t-4 -44t-2 -36.5q0 -47 17.5 -57.5t36.5 -10.5q45 0 79.5 28t59 77t37 114.5t12.5 139.5q0 45 -5 101 t-20.5 115.5t-45 116t-76.5 101.5q-53 53 -127 81.5t-158 28.5q-121 0 -214 -53t-156.5 -141t-96.5 -202t-33 -234q0 -133 38 -244t106.5 -189.5t165 -121.5t214.5 -43q70 0 126.5 11t102.5 26.5t82 34t62 32.5l37 -90q-35 -18 -76 -37.5t-93 -36t-113.5 -28t-135.5 -11.5 q-135 0 -251.5 44t-202.5 131t-136.5 216.5t-50.5 299.5zM444 608q0 -115 35 -165t76 -50t71.5 32t52 81t32 108.5t10.5 116.5q0 33 -5 68t-17.5 64.5t-35 49t-55.5 19.5q-39 0 -68.5 -26.5t-51 -72t-33 -103.5t-11.5 -122z" />
<glyph unicode="A" horiz-adv-x="1011" d="M33 0l383 1366h196l365 -1366h-168l-100 391h-410l-98 -391h-168zM332 524h342l-170 680z" />
<glyph unicode="B" horiz-adv-x="1081" d="M143 0v1366h371q47 0 93 -2t90 -11.5t83 -28.5t70 -56q29 -33 45 -69t24.5 -68.5t10.5 -60.5t2 -42q0 -84 -24.5 -138t-58.5 -88t-70 -51.5t-56 -25.5q23 -6 65.5 -22.5t84.5 -53.5t74 -101.5t32 -166.5q0 -80 -22.5 -149.5t-76 -121t-140.5 -81t-216 -29.5h-381z M309 137h211q127 0 207 57.5t80 194.5q0 43 -16.5 103.5t-79.5 105.5q-49 35 -102.5 43t-121.5 8h-178v-512zM309 786h183q41 0 88 5.5t87 27t66.5 67.5t26.5 126q0 82 -27.5 126t-66.5 64.5t-81 23.5t-71 3h-205v-443z" />
<glyph unicode="C" d="M90 678q0 47 4 117.5t20.5 150.5t47.5 160t84 144.5t133 104.5t192 40q125 0 204 -47.5t125 -114t65.5 -137t29.5 -117.5l-157 -39q-10 49 -24.5 105.5t-42.5 102.5t-75 76.5t-121 30.5q-76 0 -128 -32.5t-85.5 -86t-53 -118t-29 -128t-11.5 -119.5t-2 -89 q0 -72 9.5 -170t41 -187t93 -151.5t165.5 -62.5q57 0 98.5 16t72 54t52 98.5t40.5 148.5l149 -37q-14 -78 -37.5 -152.5t-69.5 -134t-122 -96.5t-193 -37q-102 0 -178 34t-129 89.5t-86 129t-51.5 151.5t-24.5 156.5t-6 146.5z" />
<glyph unicode="D" horiz-adv-x="1150" d="M143 0v1366h295q127 0 222.5 -31.5t165 -84t115.5 -122t72.5 -144.5t38 -150.5t11.5 -141.5q0 -135 -37 -261t-113.5 -221t-194.5 -152.5t-280 -57.5h-295zM309 137h129q125 0 211 47t138.5 123t76 173.5t23.5 197.5q0 123 -29 225.5t-85 174t-140 111.5t-195 40h-129 v-1092z" />
<glyph unicode="E" horiz-adv-x="942" d="M143 0v1366h744v-137h-578v-453h455v-137h-455v-502h594v-137h-760z" />
<glyph unicode="F" horiz-adv-x="837" d="M143 0v1366h717v-137h-551v-453h453v-137h-453v-639h-166z" />
<glyph unicode="G" horiz-adv-x="1150" d="M90 672q0 111 17.5 236.5t71.5 234t152.5 180.5t258.5 72q104 0 177 -31t120 -82t76.5 -119.5t48.5 -142.5l-150 -57q-14 51 -32.5 103t-48 94t-77 68.5t-118.5 26.5q-90 0 -151.5 -43t-98.5 -119.5t-53.5 -180t-16.5 -226.5q0 -80 10.5 -180t43 -188.5t96 -147.5 t170.5 -59q72 0 120 25.5t78.5 65.5t47 89t23.5 97t7 87v64h-278v137h440v-694h-115l-22 186q-12 -25 -34 -58.5t-59.5 -64.5t-94 -52.5t-140.5 -21.5q-102 0 -177 36t-127 95.5t-84 134t-50.5 152.5t-24.5 151.5t-6 131.5z" />
<glyph unicode="H" horiz-adv-x="1116" d="M143 0v1366h166v-580h498v580h166v-1366h-166v649h-498v-649h-166z" />
<glyph unicode="I" horiz-adv-x="454" d="M143 0v1366h166v-1366h-166z" />
<glyph unicode="J" horiz-adv-x="628" d="M-37 0v135q27 -10 60.5 -17t80.5 -7q80 0 124 25.5t64.5 80.5t23.5 141t3 205v803h166v-803q0 -121 -5 -227.5t-37.5 -188t-104.5 -129t-203 -47.5q-33 0 -77 5.5t-95 23.5z" />
<glyph unicode="K" horiz-adv-x="1011" d="M143 0v1366h166v-719l477 719h187l-359 -500l445 -866h-191l-360 717l-199 -281v-436h-166z" />
<glyph unicode="L" horiz-adv-x="802" d="M143 0v1366h166v-1229h518v-137h-684z" />
<glyph unicode="M" horiz-adv-x="1396" d="M139 0v1366h240l321 -1100l322 1100h233v-1366h-155v1184l-352 -1184h-121l-344 1186v-1186h-144z" />
<glyph unicode="N" horiz-adv-x="1150" d="M137 0v1366h211l522 -1079v1079h144v-1366h-164l-569 1163v-1163h-144z" />
<glyph unicode="O" horiz-adv-x="1150" d="M90 682q0 72 7 152.5t26.5 159.5t54.5 152t89.5 128t131.5 88t181 33q152 0 246 -69t146 -173t70.5 -230t18.5 -241q0 -74 -7 -156t-26.5 -160.5t-54.5 -150.5t-88.5 -126t-128 -86t-176.5 -32q-106 0 -183.5 34t-132.5 90.5t-89 129t-52.5 151.5t-25.5 158.5t-7 147.5z M262 682q0 -117 17.5 -230.5t60.5 -195.5q41 -78 96.5 -112.5t143.5 -34.5q90 0 143 39.5t88 105.5q45 86 61.5 203.5t16.5 224.5q0 119 -17.5 233.5t-60.5 194.5q-35 66 -86.5 106.5t-149.5 40.5q-90 0 -144 -37.5t-91 -107.5q-23 -43 -37 -95t-23.5 -108.5t-13.5 -114 t-4 -112.5z" />
<glyph unicode="P" horiz-adv-x="976" d="M143 0v1366h293q147 0 239.5 -26.5t151.5 -92.5t83 -144.5t24 -148.5q0 -104 -43 -193t-123 -140q-37 -25 -81 -38.5t-89 -19.5t-87 -7t-75 -1h-127v-555h-166zM309 692h127q53 0 110.5 4t105.5 29t79 78t31 151q0 82 -20.5 128t-41.5 71q-23 29 -47 44t-56 22.5t-71 8.5 t-90 1h-127v-537z" />
<glyph unicode="Q" horiz-adv-x="1150" d="M90 682q0 109 17.5 233.5t70.5 231t148.5 177.5t253.5 71q102 0 178 -33t129 -87t87 -127t53.5 -151.5t26.5 -159.5t7 -155q0 -78 -7 -158t-26.5 -155.5t-51.5 -144t-81 -124.5q-51 -59 -103.5 -80.5t-93.5 -33.5q-1 -11 -1 -22q0 -30 5 -55q5 -34 22 -58.5t50 -37 t88 -12.5q35 0 58.5 6.5t46.5 14.5v-135q-29 -10 -58.5 -19.5t-81.5 -9.5q-86 0 -141 25.5t-88 69.5t-44 101.5t-11 118.5q-35 4 -88.5 13.5t-120.5 50.5q-86 51 -134 141t-73 187.5t-31 184.5t-6 132zM264 682q0 -109 15.5 -224.5t62.5 -201.5q39 -74 93 -110.5t140 -36.5 q84 0 138.5 34.5t95.5 110.5q45 88 61.5 206t16.5 224q0 115 -16.5 228.5t-59.5 197.5q-35 66 -88.5 106.5t-147.5 40.5q-90 0 -143 -37.5t-90 -107.5q-23 -43 -38 -96t-24.5 -109.5t-12.5 -114t-3 -110.5z" />
<glyph unicode="R" d="M143 0v1366h398q8 0 38.5 -1t71.5 -9t85 -23.5t81 -42.5q49 -37 90 -110.5t41 -186.5q0 -92 -26.5 -155.5t-63.5 -105.5t-75 -64.5t-60 -32.5l256 -635h-178l-230 596h-262v-596h-166zM309 733h207q72 0 123 20.5t83 55.5t46 83t14 103q0 74 -25.5 120t-63.5 70.5t-82 34 t-83 9.5h-219v-496z" />
<glyph unicode="S" d="M61 358l152 43q8 -35 23.5 -84t50.5 -95t94 -78.5t156 -32.5q76 0 127 23.5t79.5 59t41 75.5t12.5 75q0 61 -23.5 104.5t-62.5 74t-86 52t-97 39.5q-59 23 -102 40.5t-77 34t-60.5 33.5t-52.5 42q-53 47 -86 119.5t-33 150.5q0 61 23.5 126t72.5 117t125 85t182 33 q115 0 189.5 -39t118.5 -94.5t67 -112.5t33 -94l-148 -43q-14 41 -31.5 84t-48 78.5t-78 58t-116.5 22.5q-70 0 -114 -23.5t-69.5 -56t-34.5 -69.5t-9 -64q0 -53 20 -91t59 -66.5t94.5 -52t127.5 -50.5q59 -23 127.5 -53.5t127 -77.5t96.5 -114.5t38 -165.5 q0 -63 -22.5 -134t-75 -129.5t-135.5 -97.5t-204 -39q-88 0 -179 28t-156 87q-72 66 -98.5 141.5t-37.5 130.5z" />
<glyph unicode="T" horiz-adv-x="733" d="M-43 1227v139h819v-139h-327v-1227h-166v1227h-326z" />
<glyph unicode="U" horiz-adv-x="1116" d="M143 463v903h166v-903q0 -68 4 -131.5t28 -112.5t74 -78.5t144 -29.5q96 0 148.5 31.5t77 81.5t28.5 114.5t4 132.5v895h156v-887q0 -78 -6 -166t-46 -164.5t-125 -127t-243 -50.5q-150 0 -232.5 48.5t-121.5 121t-47.5 158.5t-8.5 164z" />
<glyph unicode="V" horiz-adv-x="942" d="M14 1366h170l299 -1128l295 1128h158l-381 -1366h-170z" />
<glyph unicode="W" horiz-adv-x="1431" d="M37 1366h162l219 -1085l241 1085h132l247 -1085l215 1085h146l-283 -1366h-155l-244 1044l-234 -1044h-153z" />
<glyph unicode="X" horiz-adv-x="872" d="M-14 0l356 713l-309 653h182l223 -502l256 502h148l-312 -623l357 -743h-193l-260 586l-293 -586h-155z" />
<glyph unicode="Y" horiz-adv-x="802" d="M-59 1366h176l299 -629l295 629h151l-377 -788v-578h-166v578z" />
<glyph unicode="Z" horiz-adv-x="837" d="M12 0v145l619 1084h-586v137h772v-113l-633 -1108h645v-145h-817z" />
<glyph unicode="[" horiz-adv-x="628" d="M168 -342v1708h301v-104h-152v-1500h152v-104h-301z" />
<glyph unicode="\" horiz-adv-x="907" d="M104 1366h129l689 -1708h-127z" />
<glyph unicode="]" horiz-adv-x="628" d="M158 -238h151v1500h-151v104h301v-1708h-301v104z" />
<glyph unicode="^" d="M68 625l385 755h157l369 -755h-158l-299 612l-299 -612h-155z" />
<glyph unicode="_" horiz-adv-x="1024" d="M0 -154h1024v-102h-1024v102z" />
<glyph unicode="`" horiz-adv-x="1024" d="M201 1366l104 113l305 -254l-69 -74z" />
<glyph unicode="a" horiz-adv-x="942" d="M82 274q0 63 19.5 122t56.5 104q57 68 149 98.5t217 30.5q43 0 74 -2t59 -6v43q0 27 -3 69.5t-20.5 82.5t-56 68.5t-108.5 28.5q-59 0 -96 -18t-58.5 -45t-32 -53.5t-14.5 -42.5l-147 24q4 18 11 45t24.5 56.5t48.5 60.5t80 55q23 10 70.5 26.5t123.5 16.5 q92 0 160 -29.5t106 -76.5q45 -55 53.5 -140t8.5 -171v-297q0 -76 1 -125t2 -83t5 -59.5t10 -56.5h-143q-8 55 -10 90t-2 88q-16 -31 -37 -66.5t-54.5 -66.5t-81.5 -52.5t-118 -21.5q-133 0 -215 81t-82 222zM240 270q0 -78 39.5 -126t128.5 -48q76 0 126 38t80 91 q37 71 42 133q3 35 3 75q0 33 -2 69q-35 6 -58.5 9t-57.5 3q-156 0 -228.5 -60.5t-72.5 -183.5z" />
<glyph unicode="b" horiz-adv-x="976" d="M135 0v1366h150v-489q12 18 31.5 44.5t50 51t72.5 41t102 16.5q78 0 131 -26.5t86 -57.5q41 -43 67.5 -94t42 -107.5t20.5 -114t5 -112.5q0 -68 -11.5 -161t-51 -177t-116.5 -142t-206 -58q-63 0 -105.5 14t-71 36.5t-47 51.5t-32.5 59q-4 -16 -7 -26.5t-7.5 -23.5 t-9.5 -33.5t-15 -57.5h-78zM285 432q0 -31 3 -85t24.5 -108.5t66.5 -94.5t129 -40q78 0 122 42t65.5 104.5t26.5 134.5t5 133q0 80 -8 149.5t-30.5 123t-64.5 84t-112 30.5q-96 0 -161.5 -87t-65.5 -232v-154z" />
<glyph unicode="c" horiz-adv-x="837" d="M84 494q0 102 16.5 200.5t59.5 175t115.5 122.5t185.5 46q100 0 160.5 -34.5t96.5 -86t51 -112t26 -109.5l-152 -30q-6 47 -15.5 92t-28.5 79.5t-53 55t-89 20.5q-53 0 -92 -21.5t-65 -73.5t-38 -137t-12 -210q0 -43 3 -107.5t23.5 -124t63.5 -101.5t121 -42 q57 0 92 24.5t53.5 61.5t25.5 80t11 80l152 -18q-8 -51 -22.5 -112.5t-50.5 -115t-100.5 -89.5t-170.5 -36q-113 0 -183.5 47.5t-111.5 123t-56.5 168.5t-15.5 184z" />
<glyph unicode="d" horiz-adv-x="976" d="M82 492q0 131 26.5 231t73.5 169t113.5 103.5t144.5 34.5q63 0 107.5 -17.5t73 -42t45 -52t26.5 -46.5v494h150v-1366h-135v141q-10 -18 -29 -45.5t-49.5 -53.5t-77.5 -44t-115 -18q-121 0 -191.5 58t-106.5 140t-46 169t-10 145zM248 512q0 -88 11 -163t37 -129t70 -85 t109 -31q47 0 91 21.5t73 60.5q37 47 45 108.5t8 137.5v168q0 39 -7 98.5t-50 118.5q-35 49 -80 68.5t-88 19.5q-68 0 -111 -34.5t-67.5 -91t-32.5 -127t-8 -140.5z" />
<glyph unicode="e" horiz-adv-x="907" d="M84 489q0 141 31.5 245t85 171.5t125 100t151.5 32.5q170 0 263.5 -134t97.5 -419h-596q0 -23 1 -59.5t7 -79.5t20.5 -88t40 -81t66.5 -58.5t100 -22.5q53 0 89 20.5t58.5 51.5t36 66.5t21.5 64.5l141 -33q-25 -88 -62.5 -145.5t-83.5 -90t-99.5 -46t-108.5 -13.5 q-109 0 -182.5 44t-118.5 116t-64.5 166t-19.5 192zM250 608h418q0 57 -10.5 111.5t-34 97.5t-63.5 69.5t-99 26.5q-57 0 -96 -27.5t-62.5 -71.5t-36 -98t-16.5 -108z" />
<glyph unicode="f" horiz-adv-x="489" d="M18 887v123h146q2 76 7 145.5t30.5 122.5t79 85t151.5 32q45 0 68.5 -4.5t46.5 -8.5v-122q-12 4 -28.5 7t-43.5 3q-57 0 -89 -14.5t-48 -45t-20.5 -81t-4.5 -119.5h185v-123h-185v-887h-149v887h-146z" />
<glyph unicode="g" horiz-adv-x="872" d="M63 -121q0 57 15.5 93t36 58.5t43 33t39.5 16.5q-14 10 -30.5 22.5t-31 31t-24 44t-9.5 60.5q0 70 34 113.5t97 72.5q-16 14 -36.5 36.5t-38 54.5t-29.5 75t-12 100q0 78 28.5 142.5t75.5 110.5t107.5 70.5t126.5 24.5q61 0 101 -15t67 -28q12 66 34.5 100.5t52 51 t67.5 18.5t83 2v-127q-16 4 -24 4h-17q-59 0 -79.5 -38.5t-26.5 -87.5q8 -12 21.5 -32t25.5 -48.5t21.5 -65.5t9.5 -82q0 -55 -18.5 -116.5t-59.5 -112.5t-105.5 -84t-156.5 -33q-41 0 -69 5t-56 13q-29 -10 -56.5 -27.5t-27.5 -66.5q0 -35 12 -53t43 -27.5t82 -13.5t129 -8 t148.5 -11.5t122.5 -33t83 -75.5t31 -138q0 -104 -53.5 -162.5t-124 -87.5t-142 -36t-108.5 -7q-49 0 -117.5 8t-131 35t-108 79t-45.5 142zM215 -94q0 -51 19.5 -84t53.5 -52.5t82 -26.5t105 -7q33 0 78 4t86 21.5t70.5 50t29.5 90.5q0 33 -15 68.5t-73 52.5q-14 4 -30.5 6 t-52.5 4t-99.5 4t-167.5 6q-12 -8 -26.5 -18.5t-28 -26.5t-22.5 -38.5t-9 -53.5zM272 686q0 -66 17.5 -110t45 -69.5t58.5 -35.5t60 -10q35 0 68.5 14t59 42t41 71t15.5 98q0 39 -10.5 80t-32 73.5t-54 53t-79.5 20.5q-66 0 -104 -27.5t-56 -64.5t-23.5 -75.5t-5.5 -59.5z " />
<glyph unicode="h" horiz-adv-x="942" d="M135 0v1366h150v-512q6 20 20 51t43 60.5t74 51t115 21.5q78 0 140 -33.5t95 -93.5q27 -51 31 -125.5t4 -158.5v-627h-150v627q0 51 -3 102t-18 92t-48 66.5t-94 25.5q-72 0 -113 -43t-62.5 -103t-27.5 -126t-6 -113v-528h-150z" />
<glyph unicode="i" horiz-adv-x="417" d="M129 1188v174h162v-174h-162zM135 0v1010h150v-1010h-150z" />
<glyph unicode="j" horiz-adv-x="417" d="M-84 -217q23 -6 44.5 -11t55.5 -5q45 0 69 12t35 43t13 83t2 132v973h150v-973q0 -76 -4.5 -147.5t-28 -127t-74.5 -88t-145 -32.5q-37 0 -62.5 4t-54.5 12v125zM129 1188v174h162v-174h-162z" />
<glyph unicode="k" horiz-adv-x="837" d="M135 0v1366h150v-858l360 502h164l-264 -357l299 -653h-162l-238 537l-159 -220v-317h-150z" />
<glyph unicode="l" horiz-adv-x="417" d="M135 0v1366h150v-1366h-150z" />
<glyph unicode="m" horiz-adv-x="1429" d="M135 0v1010h139v-154q14 31 32 63.5t45.5 59.5t68.5 43t102 16q74 0 119 -22.5t70.5 -54t36 -67.5t16.5 -60q10 25 26.5 59.5t46 66t77 55t116.5 23.5q61 0 122.5 -26.5t100.5 -85.5q16 -25 24.5 -61t12.5 -76.5t5 -83.5t1 -82v-623h-149v614q0 57 -2 111.5t-16.5 95.5 t-46 66.5t-89.5 25.5q-66 0 -105.5 -32.5t-61 -80.5t-28.5 -103.5t-7 -100.5v-596h-150v682q0 74 -11.5 119t-33 69.5t-50 33.5t-63.5 9q-41 0 -68.5 -12t-47 -29.5t-31.5 -38t-21 -34.5q-23 -49 -26.5 -101.5t-3.5 -111.5v-586h-150z" />
<glyph unicode="n" horiz-adv-x="942" d="M135 0v1010h139v-156q10 23 26.5 54.5t46.5 60t75 49t113 20.5q86 0 149.5 -36.5t91.5 -98.5q23 -47 27 -110.5t4 -149.5v-643h-150v623q0 63 -2 116.5t-17 92t-47 60t-89 21.5q-45 0 -85 -17t-69 -60t-46 -114t-17 -177v-545h-150z" />
<glyph unicode="o" horiz-adv-x="942" d="M84 504q0 51 5 110.5t20.5 119t42 114.5t69.5 97t105.5 67.5t148.5 25.5q119 0 193.5 -51t116.5 -130t57.5 -170t15.5 -171q0 -68 -10 -161t-49 -178t-117 -145.5t-213 -60.5q-117 0 -191.5 50.5t-117.5 128t-59.5 172t-16.5 182.5zM250 504q0 -43 5 -111.5t26.5 -135.5 t65.5 -114t124 -47t124 47t65.5 114t26.5 135.5t5 111.5q0 25 -1 63.5t-8 84.5t-20.5 92.5t-38 84t-62.5 61t-91 23.5q-80 0 -125 -49t-66.5 -116.5t-25.5 -136t-4 -107.5z" />
<glyph unicode="p" horiz-adv-x="976" d="M135 -342v1352h135v-176q10 23 27.5 56.5t48.5 64t77 53t116 22.5q82 0 147.5 -36t111.5 -103.5t70.5 -161.5t24.5 -211q0 -25 -3 -75t-15.5 -110.5t-35 -123t-61.5 -113.5t-98 -83.5t-141 -32.5q-55 0 -95.5 12t-69 32.5t-50 48t-39.5 58.5v-473h-150zM285 428 q0 -63 7 -121.5t48 -113.5q31 -41 72 -65t94 -24q51 0 90 21.5t72 79.5q37 66 48 152.5t11 152.5q0 55 -8 123.5t-31.5 129t-66.5 101.5t-115 41q-45 0 -90 -20.5t-84 -89.5q-35 -63 -41 -113.5t-6 -101.5v-152z" />
<glyph unicode="q" horiz-adv-x="976" d="M82 483q0 160 35 264.5t89 168t119.5 89t127.5 25.5q63 0 106 -19.5t73 -47t46 -60.5t29 -57q8 23 15 41t13 37.5t12.5 43t14.5 56.5h80v-1366h-150v492q-14 -23 -33.5 -52.5t-50 -56.5t-73.5 -44t-105 -17q-160 0 -254 133t-94 370zM248 500q0 -68 8 -135.5t35 -131.5 q8 -20 23.5 -42.5t37 -42t50 -32t65.5 -12.5q23 0 56.5 9.5t74.5 50.5q63 63 78.5 141t15.5 160v117q0 90 -21.5 152.5t-55 100t-72.5 54t-72 16.5q-78 0 -122 -46t-66.5 -110.5t-28.5 -133t-6 -115.5z" />
<glyph unicode="r" horiz-adv-x="522" d="M135 0v1010h133v-211q10 27 29.5 69.5t53.5 81.5q34 40 85 66q42 22 97 21q13 0 26 -1v-168q-18 2 -34 2q-101 0 -165 -74q-74 -86 -75 -274v-522h-150z" />
<glyph unicode="s" horiz-adv-x="802" d="M35 260l139 31q4 -20 13.5 -53t34 -65t68.5 -54.5t118 -22.5q55 0 93 15.5t61.5 40t34.5 54.5t11 56q0 43 -18.5 70.5t-46 47t-63.5 33t-68 23.5q-66 20 -112 35.5t-80 33t-57.5 37t-41.5 46.5q-23 33 -36 70.5t-13 78.5q0 45 19.5 98.5t59 98.5t102 74.5t148.5 29.5 q92 0 150.5 -29.5t93.5 -70.5t51.5 -85t24.5 -71l-131 -32q-6 16 -18.5 43.5t-34 54t-57.5 46t-87 19.5q-45 0 -77.5 -14t-54 -35.5t-32 -50.5t-10.5 -55q0 -39 13.5 -63.5t42 -43t73.5 -34t107 -33.5q49 -16 103 -37t100.5 -54.5t76 -85t29.5 -126.5q0 -55 -21.5 -109.5 t-65.5 -99.5t-113.5 -73t-166.5 -28q-115 0 -182.5 35t-106 82t-53 95t-20.5 77z" />
<glyph unicode="t" horiz-adv-x="522" d="M6 887v123h146v235l149 15v-250h197v-123h-197v-508q0 -74 2 -126t17.5 -86t46 -49.5t90.5 -15.5q29 0 49 3t41 8v-127q-29 -4 -61.5 -9.5t-77.5 -5.5q-96 0 -148.5 30t-76 83t-27.5 128t-4 167v508h-146z" />
<glyph unicode="u" horiz-adv-x="942" d="M135 371v639h150v-637q0 -63 2 -114.5t16 -87.5t46 -55.5t89 -19.5q82 0 127 49.5t65.5 119t23.5 147t3 137.5v461h150v-1010h-139v150q-12 -25 -31 -56t-48.5 -58.5t-74.5 -46t-111 -18.5q-18 0 -47.5 3t-63.5 16.5t-66.5 40t-55.5 73.5q-12 27 -19.5 63t-10.5 74 t-4 72.5t-1 57.5z" />
<glyph unicode="v" horiz-adv-x="768" d="M14 1010h152l229 -830l221 830h138l-293 -1010h-154z" />
<glyph unicode="w" horiz-adv-x="1150" d="M25 1010h149l174 -758l172 758h109l186 -766l180 766h125l-248 -1010h-127l-172 711l-161 -711h-133z" />
<glyph unicode="x" horiz-adv-x="698" d="M-27 0l289 530l-262 480h170l180 -342l174 342h154l-250 -465l295 -545h-172l-211 401l-209 -401h-158z" />
<glyph unicode="y" horiz-adv-x="768" d="M39 1010h149l207 -756l223 756h144l-348 -1112q-18 -55 -38 -103.5t-49.5 -84.5t-71.5 -55.5t-105 -19.5q-31 0 -53.5 3.5t-45.5 7.5v123q16 -4 31.5 -6.5t38.5 -2.5q43 0 70.5 11.5t49 42t40 86t43.5 145.5z" />
<glyph unicode="z" horiz-adv-x="663" d="M18 0v123l445 764h-408v123h600v-82l-467 -805h467v-123h-637z" />
<glyph unicode="{" horiz-adv-x="628" d="M84 459v125q43 -2 67.5 13t35 47t12.5 78t2 107v211q0 74 4 136.5t30.5 106.5t84 66.5t163.5 16.5v-106q-47 0 -73.5 -10.5t-40 -35t-16.5 -66.5t-3 -108v-211q0 -80 -3 -132t-16.5 -85.5t-39 -54t-70.5 -35.5q45 -14 70.5 -34.5t39 -54.5t16.5 -86t3 -132v-235 q0 -66 3 -108t16.5 -66.5t40 -35t73.5 -10.5l-2 -106q-104 -6 -161.5 16.5t-84 66.5t-30.5 106.5t-4 136.5v235q0 61 -2 107.5t-12.5 77t-35 46t-67.5 13.5z" />
<glyph unicode="|" horiz-adv-x="1024" d="M444 -512v2048h138v-2048h-138z" />
<glyph unicode="}" horiz-adv-x="628" d="M145 -240q49 0 76 10.5t39 36t15.5 67.5t3.5 106v233q0 80 3 133t16 87t38.5 54.5t71.5 34.5q-45 14 -71 33.5t-39 53.5t-16 87.5t-3 132.5v211q0 63 -3.5 105.5t-15.5 68t-38.5 36t-76.5 10.5v106q106 6 164 -16.5t84.5 -66.5t30.5 -106.5t4 -136.5v-211q0 -61 2 -107 t12.5 -78t35 -47t67.5 -13v-125q-43 2 -67.5 -13.5t-35 -46t-12.5 -77t-2 -107.5v-235q0 -74 -4 -136.5t-30.5 -106.5t-84 -66.5t-164.5 -16.5v106z" />
<glyph unicode="~" d="M33 594q18 37 41.5 77t55.5 74.5t76 57t105 22.5q12 0 27.5 -1t42.5 -8t65.5 -21.5t96.5 -40.5q39 -18 66.5 -31.5t50 -22t42 -11.5t41.5 -3q72 0 113 42t76 101l84 -49q-12 -25 -33.5 -63.5t-56.5 -74.5t-84 -61.5t-115 -25.5q-53 0 -118.5 25.5t-168.5 72.5 q-86 41 -139 41q-39 0 -68.5 -16t-52 -40t-38 -50.5t-27.5 -46.5z" />
<glyph unicode="&#xa1;" horiz-adv-x="698" d="M246 -356l53 1032h100l54 -1032h-207zM256 801v209h186v-209h-186z" />
<glyph unicode="&#xa2;" d="M184 688q0 33 5.5 86t20.5 112.5t45 118t81 101.5q45 35 83 47t68 18v195h103v-195q43 -6 84 -22t77.5 -50t65.5 -92.5t45 -146.5l-125 -31q-18 98 -52 150.5t-95 73.5v-711q74 27 102.5 80t44.5 141l125 -26q-4 -29 -14 -76t-38 -95.5t-80 -89t-140 -55.5v-235h-103v235 q-37 6 -94 26.5t-112 94.5q-49 63 -73 158.5t-24 187.5zM340 692q0 -100 12.5 -162.5t33 -100.5t47 -56.5t54.5 -30.5v709q-25 -8 -51 -24.5t-47.5 -53.5t-35 -103.5t-13.5 -177.5z" />
<glyph unicode="&#xa3;" d="M59 0v137h43q82 0 141.5 28t97.5 73t55.5 100t17.5 111q0 59 -7.5 108t-15.5 90h-231v123h211q-10 55 -20.5 124t-10.5 132q0 43 12.5 106.5t51 122t108.5 99.5t186 41q70 0 122 -19.5t88 -48.5t59.5 -61.5t40.5 -57.5l-117 -96q-10 20 -25.5 46t-38 48.5t-56.5 38 t-79 15.5q-72 0 -110.5 -34t-57 -77t-21.5 -84t-3 -53q0 -25 2 -47.5t6 -49t11 -61.5t18 -84h286v-123h-270q4 -27 9 -59.5t5 -81.5q0 -90 -18.5 -152.5t-46 -104.5t-59 -69.5t-58.5 -46.5h156q88 0 148.5 5t104.5 22.5t75.5 50.5t64.5 88l113 -88q-41 -78 -88.5 -121 t-107.5 -62.5t-136 -23.5t-174 -4h-482z" />
<glyph unicode="&#xa4;" d="M109 1036l84 84l153 -151q20 14 63.5 34.5t114.5 20.5q72 0 111 -17.5t72 -39.5l151 151l84 -84l-151 -151q12 -20 32.5 -64.5t20.5 -113.5q0 -72 -20.5 -116t-35.5 -65l152 -151l-84 -84l-151 149q-29 -16 -70 -35.5t-111 -19.5q-68 0 -112.5 20.5t-65.5 32.5l-151 -149 l-84 84l151 149q-20 31 -38.5 71t-18.5 111q0 72 21.5 117t33.5 66zM334 705q0 -41 15.5 -76t41 -61.5t60 -41t73.5 -14.5q78 0 134.5 54.5t56.5 135.5q0 39 -15.5 75t-41 61.5t-60.5 41t-74 15.5q-41 0 -74.5 -15.5t-60.5 -42t-41 -60.5t-14 -72z" />
<glyph unicode="&#xa5;" d="M63 1366h179l293 -659l292 659h158l-272 -555h245v-106h-294l-68 -154h362v-107h-362v-444h-150v444h-333v107h331l-73 154h-258v106h213z" />
<glyph unicode="&#xa6;" horiz-adv-x="1024" d="M442 -358v716h138v-716h-138zM442 666v716h138v-716h-138z" />
<glyph unicode="&#xa7;" d="M129 -53l145 26q4 -20 15.5 -55t38 -68.5t74 -58t122.5 -24.5q74 0 121 21.5t73.5 53t36 67.5t9.5 64q0 51 -18.5 88t-46 61.5t-58.5 38t-53 21.5q-80 27 -133.5 46.5t-92 36t-64.5 31.5t-50 38q-49 43 -64.5 96t-15.5 94q0 61 18.5 109.5t44 84.5t55 61.5t52.5 41.5 q-16 12 -39 32.5t-43 52.5t-35.5 77t-15.5 107q0 68 24.5 124t69.5 96t104.5 62.5t131.5 22.5q70 0 144.5 -22.5t125.5 -74.5q43 -43 60.5 -91t27.5 -87l-145 -20q-6 20 -18.5 52t-36 59.5t-62.5 48t-101 20.5q-31 0 -70.5 -11.5t-68.5 -45.5q-23 -29 -31 -64t-8 -61 q0 -53 20.5 -90t55.5 -62.5t81 -44t99 -37.5q51 -18 103.5 -40.5t95.5 -56.5t69.5 -83t26.5 -123q0 -57 -15.5 -101t-38 -78t-49 -59.5t-48.5 -43.5q23 -16 51 -38t54 -54.5t43.5 -80t17.5 -110.5q0 -76 -29 -140.5t-81 -112.5t-126 -74.5t-166 -26.5q-123 0 -196.5 38.5 t-114.5 90t-56.5 102.5t-19.5 74zM307 567q0 -51 16.5 -83.5t55.5 -58.5t104.5 -49.5t163.5 -56.5q39 35 78 81t39 120q0 43 -16.5 73t-38 50.5t-43 32.5t-33.5 18q-10 6 -39 17.5t-61.5 24t-62.5 23.5t-42 15q-45 -39 -83 -86t-38 -121z" />
<glyph unicode="&#xa8;" horiz-adv-x="1024" d="M256 1276q0 41 29.5 69.5t74.5 28.5t75 -28.5t30 -69.5q0 -47 -35 -72.5t-70 -25.5t-69.5 25.5t-34.5 72.5zM559 1276q0 41 29.5 69.5t75.5 28.5q45 0 74.5 -28.5t29.5 -69.5q0 -47 -34.5 -72.5t-69.5 -25.5q-37 0 -71 25.5t-34 72.5z" />
<glyph unicode="&#xa9;" horiz-adv-x="1605" d="M88 684q0 145 56.5 274t153.5 226.5t227 154t278 56.5q147 0 278 -56.5t227.5 -154t153 -226.5t56.5 -274q0 -147 -56.5 -277.5t-154 -226.5t-227.5 -151.5t-277 -55.5t-277.5 55.5t-227.5 151.5t-153.5 226.5t-56.5 277.5zM203 682q0 -125 47 -234.5t129 -191.5 t191.5 -129t232.5 -47t232.5 47t191.5 129t129 191.5t47 234.5t-47 235.5t-129 192.5t-190.5 130t-233.5 48q-123 0 -232.5 -48t-191.5 -130t-129 -192.5t-47 -235.5zM498 680q0 45 8 117.5t40 141.5t94 119t173 50q84 0 136 -29.5t83 -70.5t44.5 -86t19.5 -76l-125 -27 q-6 33 -15.5 67t-26 60.5t-44 43t-70.5 16.5q-63 0 -99 -36t-54.5 -87.5t-23.5 -106.5t-5 -94q0 -41 5 -95.5t24.5 -105.5t55.5 -86t97 -35q70 0 101.5 41t54.5 146l119 -27q-8 -41 -22.5 -87t-44.5 -85t-81 -64.5t-133 -25.5q-102 0 -162.5 42t-95.5 110q-20 39 -30.5 83 t-15.5 82.5t-6 67.5t-1 37z" />
<glyph unicode="&#xaa;" d="M250 877q0 92 44 143t101.5 73.5t111.5 26.5t75 4q29 0 46 -1t34 -5q0 23 -2.5 51.5t-13.5 54t-35.5 43t-71.5 17.5q-39 0 -62.5 -11t-38 -26.5t-20.5 -35t-8 -33.5l-134 20q4 18 15.5 51t40 65t80 56.5t137.5 24.5q72 0 122 -22.5t77 -55.5q35 -39 41 -95.5t6 -115.5 v-197q0 -57 1 -92t2 -58.5t4 -41t9 -37.5h-125q-4 23 -5 40t-5 58q-14 -20 -29.5 -40.5t-39 -38t-55.5 -27.5t-77 -10q-96 0 -160.5 55t-64.5 160zM395 877q0 -61 32 -83t69 -22q61 0 95 31t49 70.5t18.5 79.5t3.5 61q-18 4 -33 6t-37 2q-41 0 -77 -6t-62.5 -22.5t-42 -45 t-15.5 -71.5z" />
<glyph unicode="&#xab;" horiz-adv-x="733" d="M92 526l178 287h92l-94 -287l94 -288h-92zM371 526l178 303h92l-94 -303l94 -303h-92z" />
<glyph unicode="&#xac;" d="M104 739v125h838v-465h-119v340h-719z" />
<glyph unicode="&#xad;" horiz-adv-x="593" d="M72 446v123h450v-123h-450z" />
<glyph unicode="&#xae;" d="M115 969q0 86 32.5 160.5t88 131t130 88t158.5 31.5q82 0 157 -31.5t130 -87t88 -131t33 -161.5t-33 -161t-89 -129t-130 -86t-156 -32q-84 0 -158.5 32t-130 87t-88 129t-32.5 160zM203 969q0 -70 25.5 -129.5t70.5 -103.5t102.5 -68.5t122.5 -24.5q66 0 124.5 24.5 t101.5 68.5t68.5 103.5t25.5 129.5t-25.5 129t-68.5 104t-101.5 70.5t-124.5 25.5t-124 -25.5t-102 -69.5t-69.5 -104.5t-25.5 -129.5zM389 752v450h150q23 0 50 -4t52 -17.5t41 -38t16 -63.5q0 -29 -9 -49t-21.5 -32.5t-26.5 -20.5t-25 -12l91 -213h-89l-77 190h-68v-190 h-84zM473 1001h59q35 0 58.5 18.5t23.5 59.5q0 63 -77 64h-64v-142z" />
<glyph unicode="&#xaf;" horiz-adv-x="1024" d="M238 1214v119h546v-119h-546z" />
<glyph unicode="&#xb0;" d="M209 1079q0 66 24.5 123.5t67.5 100.5t100 67.5t123 24.5q63 0 120.5 -24.5t100.5 -67.5t68 -100.5t25 -123.5q0 -68 -26 -125t-69 -99t-100 -66.5t-121 -24.5q-66 0 -122 24.5t-99 67.5t-67.5 100.5t-24.5 122.5zM348 1079q0 -43 13.5 -78.5t38 -63.5t56 -43t68.5 -15 t69 15t55.5 43t36.5 64.5t13 77.5t-13 78t-36.5 64.5t-55.5 43t-69 15.5h-2q-37 0 -68.5 -15.5t-55 -43t-37 -64.5t-13.5 -78z" />
<glyph unicode="&#xb1;" d="M104 39v125h838v-125h-838zM104 621v124h353v357h133v-357h352v-124h-352v-357h-133v357h-353z" />
<glyph unicode="&#xb2;" horiz-adv-x="698" d="M57 1130q4 20 17.5 62.5t43 84.5t82 73.5t136.5 31.5q117 0 188.5 -66.5t71.5 -180.5q0 -96 -46 -165t-108 -130q-39 -37 -96 -87.5t-121 -97.5h371v-108h-537v96q141 117 222 196t122 133t51.5 90t10.5 66q0 8 -3 33t-16.5 50.5t-42 46t-77.5 20.5q-47 0 -76 -18.5 t-44.5 -45t-22.5 -56.5t-9 -52z" />
<glyph unicode="&#xb3;" horiz-adv-x="698" d="M37 745l110 35q6 -18 15.5 -43.5t29 -50t51 -42t81.5 -17.5q14 0 38.5 5t49 20.5t43 46t18.5 83.5q0 51 -20.5 81t-49 43.5t-61.5 16.5t-57 3h-68v94h68q23 0 51.5 2t54 14.5t43 39t17.5 75.5q0 66 -35 100.5t-92 34.5q-43 0 -70 -13t-44 -33.5t-25.5 -45.5t-14.5 -45 l-104 31q6 20 18 55t42 67.5t79 56t127 23.5q106 0 179 -57t73 -170q0 -45 -14.5 -75.5t-35 -51t-41 -31t-32.5 -16.5q23 -8 50.5 -20.5t55.5 -45.5q27 -35 36 -71.5t9 -65.5q0 -47 -17 -92t-53 -80t-90.5 -55.5t-127.5 -20.5q-86 0 -139.5 25t-84 59.5t-44 71.5t-19.5 59z " />
<glyph unicode="&#xb4;" horiz-adv-x="1024" d="M414 1225l305 254l104 -113l-340 -215z" />
<glyph unicode="&#xb6;" d="M53 985q0 113 42 197t102 125q31 20 70.5 32.5t78.5 18.5t72 7t51 1h422v-1708h-119v1591h-104v-1591h-119v950h-80q-76 0 -144.5 8.5t-134.5 57.5q-49 35 -75.5 81t-41 91t-17.5 83t-3 56z" />
<glyph unicode="&#xb7;" horiz-adv-x="487" d="M152 571v222h186v-222h-186z" />
<glyph unicode="&#xb8;" horiz-adv-x="1024" d="M369 -336l22 66q31 -10 66 -18.5t75 -8.5q8 0 22.5 1t30 7t27 18.5t11.5 37.5q0 18 -8.5 30.5t-18.5 20.5t-21.5 11t-17.5 5q-12 4 -44 5t-73 1l52 160h83l-26 -90h33q76 0 122 -39t46 -98q0 -29 -13.5 -58.5t-39 -53t-63.5 -38t-87 -14.5q-66 0 -108 19.5t-70 35.5z" />
<glyph unicode="&#xb9;" horiz-adv-x="698" d="M170 1094v123q33 16 81 49.5t109 109.5h91v-735h135v-94h-408v94h144v559q-20 -18 -36 -31.5t-32 -24.5t-35.5 -23.5t-48.5 -26.5z" />
<glyph unicode="&#xba;" d="M246 1028q0 74 18.5 157t75.5 142q63 68 184 68q84 0 137.5 -34t84 -86t43 -115.5t12.5 -123.5q0 -53 -9.5 -117.5t-38 -122t-84 -95t-149.5 -37.5q-84 0 -137 34.5t-84 88t-42 118t-11 123.5zM379 1028q0 -35 4 -81t19.5 -87t44 -69.5t77.5 -28.5q51 0 81 32.5 t43.5 75.5t16.5 88.5t3 69.5q0 20 -2 64.5t-15.5 89.5t-43 79.5t-83.5 34.5q-51 0 -80.5 -30.5t-44 -73.5t-17.5 -89t-3 -75z" />
<glyph unicode="&#xbb;" horiz-adv-x="733" d="M92 223l94 303l-94 303h92l178 -303l-178 -303h-92zM371 223l94 303l-94 303h92l178 -303l-178 -303h-92z" />
<glyph unicode="&#xbc;" horiz-adv-x="1533" d="M170 1094v123q33 16 81 49.5t109 109.5h91v-735h135v-94h-408v94h144v559q-20 -18 -36 -31.5t-32 -24.5t-35.5 -23.5t-48.5 -26.5zM365 0l686 1366h118l-684 -1366h-120zM842 193v77l329 566h148v-549h113v-94h-113v-193h-121v193h-356zM969 287h229v432z" />
<glyph unicode="&#xbd;" horiz-adv-x="1533" d="M125 1094v123q33 16 81 49.5t109 109.5h91v-735h135v-94h-408v94h143v559q-20 -18 -35.5 -31.5t-31.5 -24.5t-35.5 -23.5t-48.5 -26.5zM319 0l685 1366h118l-682 -1366h-121zM848 584q4 20 17.5 62t43 84t81.5 74t136 32q117 0 188.5 -65.5t71.5 -182.5q0 -37 -9 -80 t-47 -98.5t-111.5 -129t-202.5 -171.5h370v-109h-536v96q74 61 167 143.5t167 172.5q23 29 47 72.5t24 97.5q0 12 -4 36.5t-18 50t-42 44t-75 18.5t-74.5 -18.5t-44 -45t-22.5 -56t-10 -52.5z" />
<glyph unicode="&#xbe;" horiz-adv-x="1533" d="M72 745l110 35q6 -18 15.5 -43.5t29 -50t51 -42t80.5 -17.5q14 0 39 5t49.5 20.5t43 46t18.5 83.5q0 51 -20.5 81t-49 43.5t-61.5 16.5t-58 3h-67v94h67q23 0 51.5 2t54.5 14.5t43 39t17 75.5q0 66 -34.5 100.5t-92.5 34.5q-43 0 -69.5 -13t-44 -33.5t-25.5 -45.5 t-14 -45l-105 31q6 20 18.5 55t42 67.5t79 56t127.5 23.5q106 0 178.5 -57t72.5 -170q0 -45 -14 -75.5t-34.5 -51t-41 -31t-32.5 -16.5q23 -8 50 -20.5t56 -45.5q27 -35 36 -71.5t9 -65.5q0 -47 -17.5 -92t-53 -80t-90 -55.5t-128.5 -20.5q-86 0 -139 25t-84 59.5t-44 71.5 t-19 59zM399 0l684 1366h119l-684 -1366h-119zM854 193v77l328 566h147v-549h115v-94h-115v-193h-121v193h-354zM979 287h229v432z" />
<glyph unicode="&#xbf;" horiz-adv-x="1011" d="M139 -18q0 68 15.5 120t43 94t65.5 77.5t85 72.5q53 43 84 74t45.5 64.5t15.5 75.5t-1 108h147q0 -70 -3 -124.5t-14.5 -98.5t-36 -79.5t-69.5 -70.5q-53 -41 -93 -74t-66.5 -67.5t-39 -75.5t-12.5 -98q0 -39 9.5 -81t34 -77t68.5 -57.5t111 -22.5q236 0 260 311l144 -37 q-6 -45 -22.5 -113.5t-59.5 -132t-121 -108.5t-207 -45q-80 0 -150.5 23.5t-121.5 69.5t-81 113.5t-30 158.5zM473 801v209h186v-209h-186z" />
<glyph unicode="&#xc0;" horiz-adv-x="1011" d="M33 0l383 1366h196l365 -1366h-168l-100 391h-410l-98 -391h-168zM188 1624l74 139l371 -170l-49 -90zM332 524h342l-170 680z" />
<glyph unicode="&#xc1;" horiz-adv-x="1011" d="M33 0l383 1366h196l365 -1366h-168l-100 391h-410l-98 -391h-168zM332 524h342l-170 680zM391 1593l371 170l74 -139l-396 -121z" />
<glyph unicode="&#xc2;" horiz-adv-x="1011" d="M33 0l383 1366h196l365 -1366h-168l-100 391h-410l-98 -391h-168zM180 1513l332 228l332 -228l-150 -26l-182 106l-182 -106zM332 524h342l-170 680z" />
<glyph unicode="&#xc3;" horiz-adv-x="1011" d="M33 0l383 1366h196l365 -1366h-168l-100 391h-410l-98 -391h-168zM178 1561q43 86 93.5 119.5t109.5 33.5q16 0 28.5 -2t29 -8t42 -17.5t66.5 -29.5q18 -8 35.5 -13.5t40.5 -5.5q37 0 56 19.5t38 48.5l88 -49q-12 -23 -28.5 -48.5t-41 -47t-57.5 -37t-76 -15.5 q-25 0 -54.5 7.5t-82.5 35.5q-43 23 -62.5 28t-33.5 5q-43 0 -66.5 -27.5t-36.5 -46.5zM332 524h342l-170 680z" />
<glyph unicode="&#xc4;" horiz-adv-x="1011" d="M33 0l383 1366h196l365 -1366h-168l-100 391h-410l-98 -391h-168zM248 1610q0 41 30.5 71.5t75.5 30.5q47 0 78 -29.5t31 -72.5q0 -53 -37 -78t-70 -25q-16 0 -35.5 6.5t-36 18.5t-26.5 31.5t-10 46.5zM332 524h342l-170 680zM561 1610q0 43 32 72.5t77 29.5t75.5 -29.5 t30.5 -72.5q0 -51 -36.5 -77t-69.5 -26q-16 0 -36 6.5t-36 18.5t-26.5 31.5t-10.5 46.5z" />
<glyph unicode="&#xc5;" horiz-adv-x="1011" d="M33 0l383 1366h196l365 -1366h-168l-100 391h-410l-98 -391h-168zM322 1640q0 39 15 74t40.5 60.5t60.5 40t74 14.5t72.5 -14.5t60.5 -40t42 -60.5t15 -74q0 -41 -15 -74.5t-42 -60t-60.5 -41t-72.5 -14.5q-78 0 -134 54.5t-56 135.5zM332 524h342l-170 680zM416 1638 q0 -45 30.5 -69.5t65.5 -24.5q33 0 64.5 23.5t31.5 70.5q0 43 -29.5 70t-66.5 27t-66.5 -27t-29.5 -70z" />
<glyph unicode="&#xc6;" horiz-adv-x="1501" d="M-61 0l690 1366h827v-137h-584v-453h459v-137h-459v-502h588v-137h-753v422h-402l-205 -422h-161zM371 559h336v690z" />
<glyph unicode="&#xc7;" d="M90 678q0 47 4 117.5t20.5 150.5t47.5 160t84 144.5t133 104.5t194 40q125 0 203 -47.5t124 -114t66.5 -137t30.5 -117.5l-159 -39q-10 49 -24.5 105.5t-42.5 102.5t-74 76.5t-119 30.5q-76 0 -128.5 -32.5t-87 -86t-54 -118t-29 -128t-11.5 -119.5t-2 -89 q0 -47 4 -108.5t15.5 -125t32 -124t55.5 -108.5t85 -76.5t120 -28.5q57 0 98 16t70.5 54t51 98.5t40.5 148.5l151 -37q-23 -117 -56.5 -195.5t-82.5 -127t-115.5 -71t-152.5 -26.5l-23 -73q78 2 121 -17.5t62.5 -45t22.5 -49.5t3 -30q0 -63 -55.5 -115.5t-153.5 -52.5 q-68 0 -112 20.5t-72 37.5l24 65q31 -10 66 -18t78 -8q8 0 24.5 1t31.5 7t26.5 19.5t11.5 37.5q0 39 -25.5 51.5t-42.5 16.5q-6 0 -23.5 1t-37 2t-37.5 2t-25 1l50 151q-72 10 -138.5 42t-111.5 92q-90 113 -123 263t-33 306z" />
<glyph unicode="&#xc8;" horiz-adv-x="942" d="M143 0v1366h744v-137h-578v-453h455v-137h-455v-502h594v-137h-760zM188 1624l74 139l371 -170l-49 -90z" />
<glyph unicode="&#xc9;" horiz-adv-x="942" d="M143 0v1366h744v-137h-578v-453h455v-137h-455v-502h594v-137h-760zM391 1593l371 170l74 -139l-396 -121z" />
<glyph unicode="&#xca;" horiz-adv-x="942" d="M143 0v1366h744v-137h-578v-453h455v-137h-455v-502h594v-137h-760zM150 1513l331 228l332 -228l-149 -26l-183 106l-182 -106z" />
<glyph unicode="&#xcb;" horiz-adv-x="942" d="M143 0v1366h744v-137h-578v-453h455v-137h-455v-502h594v-137h-760zM217 1610q0 41 31 71.5t76 30.5q47 0 77.5 -29.5t30.5 -72.5q0 -53 -36.5 -78t-69.5 -25q-16 0 -36 6.5t-36 18.5t-26.5 31.5t-10.5 46.5zM530 1610q0 43 32 72.5t77 29.5t75.5 -29.5t30.5 -72.5 q0 -51 -36.5 -77t-69.5 -26q-16 0 -35.5 6.5t-36 18.5t-27 31.5t-10.5 46.5z" />
<glyph unicode="&#xcc;" horiz-adv-x="454" d="M-119 1624l74 139l371 -170l-50 -90zM143 0v1366h166v-1366h-166z" />
<glyph unicode="&#xcd;" horiz-adv-x="454" d="M143 0v1366h166v-1366h-166zM145 1593l371 170l74 -139l-395 -121z" />
<glyph unicode="&#xce;" horiz-adv-x="454" d="M-96 1513l332 228l331 -228l-149 -26l-182 106l-183 -106zM143 0v1366h166v-1366h-166z" />
<glyph unicode="&#xcf;" horiz-adv-x="454" d="M-39 1610q0 41 31 71.5t76 30.5q47 0 77.5 -29.5t30.5 -72.5q0 -53 -36.5 -78t-69.5 -25q-16 0 -36 6.5t-36 18.5t-26.5 31.5t-10.5 46.5zM143 0v1366h166v-1366h-166zM274 1610q0 43 32 72.5t77 29.5t75.5 -29.5t30.5 -72.5q0 -51 -36.5 -77t-69.5 -26q-16 0 -35.5 6.5 t-36 18.5t-27 31.5t-10.5 46.5z" />
<glyph unicode="&#xd0;" horiz-adv-x="1150" d="M12 639v137h131v590h295q127 0 222.5 -31.5t165 -84t115.5 -122t72.5 -144.5t38 -150.5t11.5 -141.5q0 -135 -37 -261t-113.5 -221t-194.5 -152.5t-280 -57.5h-295v639h-131zM309 137h129q125 0 211 46t138.5 123t76 173t23.5 199q0 123 -29 224.5t-85 174t-140 112.5 t-195 40h-129v-453h281v-137h-281v-502z" />
<glyph unicode="&#xd1;" horiz-adv-x="1150" d="M137 0v1366h211l522 -1079v1079h144v-1366h-164l-569 1163v-1163h-144zM250 1561q43 86 93 119.5t110 33.5q16 0 28.5 -2t28.5 -8t42 -17.5t66 -29.5q18 -8 36 -13.5t40 -5.5q37 0 56.5 19.5t37.5 48.5l89 -49q-12 -23 -29 -48.5t-41.5 -47t-57 -37t-75.5 -15.5 q-25 0 -54.5 7.5t-82.5 35.5q-43 23 -62.5 28t-34.5 5q-43 0 -66.5 -27.5t-35.5 -46.5z" />
<glyph unicode="&#xd2;" horiz-adv-x="1150" d="M90 682q0 72 7 152.5t26.5 159.5t54.5 152t89.5 128t131.5 88t181 33q152 0 246 -69t146 -173t70.5 -230t18.5 -241q0 -74 -7 -156t-26.5 -160.5t-54.5 -150.5t-88.5 -126t-128 -86t-176.5 -32q-106 0 -183.5 34t-132.5 90.5t-89 129t-52.5 151.5t-25.5 158.5t-7 147.5z M229 1624l74 139l371 -170l-49 -90zM262 682q0 -117 17.5 -230.5t60.5 -195.5q41 -78 96.5 -112.5t143.5 -34.5q90 0 143 39.5t88 105.5q45 86 61.5 203.5t16.5 224.5q0 119 -17.5 233.5t-60.5 194.5q-35 66 -86.5 106.5t-149.5 40.5q-90 0 -144 -37.5t-91 -107.5 q-23 -43 -37 -95t-23.5 -108.5t-13.5 -114t-4 -112.5z" />
<glyph unicode="&#xd3;" horiz-adv-x="1150" d="M90 682q0 72 7 152.5t26.5 159.5t54.5 152t89.5 128t131.5 88t181 33q152 0 246 -69t146 -173t70.5 -230t18.5 -241q0 -74 -7 -156t-26.5 -160.5t-54.5 -150.5t-88.5 -126t-128 -86t-176.5 -32q-106 0 -183.5 34t-132.5 90.5t-89 129t-52.5 151.5t-25.5 158.5t-7 147.5z M262 682q0 -117 17.5 -230.5t60.5 -195.5q41 -78 96.5 -112.5t143.5 -34.5q90 0 143 39.5t88 105.5q45 86 61.5 203.5t16.5 224.5q0 119 -17.5 233.5t-60.5 194.5q-35 66 -86.5 106.5t-149.5 40.5q-90 0 -144 -37.5t-91 -107.5q-23 -43 -37 -95t-23.5 -108.5t-13.5 -114 t-4 -112.5zM391 1593l371 170l74 -139l-396 -121z" />
<glyph unicode="&#xd4;" horiz-adv-x="1150" d="M90 682q0 72 7 152.5t26.5 159.5t54.5 152t89.5 128t131.5 88t181 33q152 0 246 -69t146 -173t70.5 -230t18.5 -241q0 -74 -7 -156t-26.5 -160.5t-54.5 -150.5t-88.5 -126t-128 -86t-176.5 -32q-106 0 -183.5 34t-132.5 90.5t-89 129t-52.5 151.5t-25.5 158.5t-7 147.5z M242 1513l331 228l332 -228l-149 -26l-183 106l-182 -106zM262 682q0 -117 17.5 -230.5t60.5 -195.5q41 -78 96.5 -112.5t143.5 -34.5q90 0 143 39.5t88 105.5q45 86 61.5 203.5t16.5 224.5q0 119 -17.5 233.5t-60.5 194.5q-35 66 -86.5 106.5t-149.5 40.5q-90 0 -144 -37.5 t-91 -107.5q-23 -43 -37 -95t-23.5 -108.5t-13.5 -114t-4 -112.5z" />
<glyph unicode="&#xd5;" horiz-adv-x="1150" d="M90 682q0 72 7 152.5t26.5 159.5t54.5 152t89.5 128t131.5 88t181 33q152 0 246 -69t146 -173t70.5 -230t18.5 -241q0 -74 -7 -156t-26.5 -160.5t-54.5 -150.5t-88.5 -126t-128 -86t-176.5 -32q-106 0 -183.5 34t-132.5 90.5t-89 129t-52.5 151.5t-25.5 158.5t-7 147.5z M260 1561q43 86 93 119.5t110 33.5q16 0 28.5 -2t29 -8t42 -17.5t66.5 -29.5q18 -8 35.5 -13.5t40.5 -5.5q37 0 56 19.5t38 48.5l88 -49q-12 -23 -28.5 -48.5t-41 -47t-57.5 -37t-76 -15.5q-25 0 -54.5 7.5t-82.5 35.5q-43 23 -62.5 28t-33.5 5q-43 0 -67 -27.5t-36 -46.5z M262 682q0 -117 17.5 -230.5t60.5 -195.5q41 -78 96.5 -112.5t143.5 -34.5q90 0 143 39.5t88 105.5q45 86 61.5 203.5t16.5 224.5q0 119 -17.5 233.5t-60.5 194.5q-35 66 -86.5 106.5t-149.5 40.5q-90 0 -144 -37.5t-91 -107.5q-23 -43 -37 -95t-23.5 -108.5t-13.5 -114 t-4 -112.5z" />
<glyph unicode="&#xd6;" horiz-adv-x="1150" d="M90 682q0 72 7 152.5t26.5 159.5t54.5 152t89.5 128t131.5 88t181 33q152 0 246 -69t146 -173t70.5 -230t18.5 -241q0 -74 -7 -156t-26.5 -160.5t-54.5 -150.5t-88.5 -126t-128 -86t-176.5 -32q-106 0 -183.5 34t-132.5 90.5t-89 129t-52.5 151.5t-25.5 158.5t-7 147.5z M262 682q0 -117 17.5 -230.5t60.5 -195.5q41 -78 96.5 -112.5t143.5 -34.5q90 0 143 39.5t88 105.5q45 86 61.5 203.5t16.5 224.5q0 119 -17.5 233.5t-60.5 194.5q-35 66 -86.5 106.5t-149.5 40.5q-90 0 -144 -37.5t-91 -107.5q-23 -43 -37 -95t-23.5 -108.5t-13.5 -114 t-4 -112.5zM309 1610q0 41 31 71.5t76 30.5q47 0 77.5 -29.5t30.5 -72.5q0 -53 -36.5 -78t-69.5 -25q-16 0 -36 6.5t-36 18.5t-26.5 31.5t-10.5 46.5zM623 1610q0 43 31.5 72.5t76.5 29.5t76 -29.5t31 -72.5q0 -51 -37 -77t-70 -26q-16 0 -35.5 6.5t-36 18.5t-26.5 31.5 t-10 46.5z" />
<glyph unicode="&#xd7;" d="M168 420l262 262l-262 262l94 94l262 -262l262 262l93 -94l-263 -262l263 -262l-93 -92l-262 262l-262 -262z" />
<glyph unicode="&#xd8;" horiz-adv-x="1150" d="M98 682q0 68 6.5 146.5t24.5 158.5t52 152.5t87.5 130t129 91.5t180.5 34q72 0 138 -19.5t124 -60.5l63 125h119l-102 -207q78 -115 105.5 -256t27.5 -295q0 -102 -15.5 -225t-65.5 -231.5t-143.5 -181.5t-246.5 -73q-70 0 -135.5 18.5t-122.5 55.5l-66 -129h-119 l105 207q-49 68 -78 144.5t-44.5 151.5t-19.5 143.5t-4 119.5zM258 682q0 -100 7 -172t17.5 -122t21.5 -82t20 -50l440 944q-10 8 -24.5 18.5t-37 20.5t-53.5 17.5t-74 7.5q-90 0 -145 -37t-92 -109q-25 -45 -40 -99t-24.5 -111.5t-12.5 -116t-3 -109.5zM397 158 q16 -12 57.5 -34t123.5 -22q86 0 141 37t96 111q25 45 39 99t23.5 111.5t12.5 115t3 106.5q0 119 -11.5 219t-45.5 193z" />
<glyph unicode="&#xd9;" horiz-adv-x="1116" d="M143 463v903h166v-903q0 -68 4 -131.5t28 -112.5t74 -78.5t144 -29.5q96 0 148.5 31.5t77 81.5t28.5 114.5t4 132.5v895h156v-887q0 -78 -6 -166t-46 -164.5t-125 -127t-243 -50.5q-150 0 -232.5 48.5t-121.5 121t-47.5 158.5t-8.5 164zM188 1624l74 139l371 -170 l-49 -90z" />
<glyph unicode="&#xda;" horiz-adv-x="1116" d="M143 463v903h166v-903q0 -68 4 -131.5t28 -112.5t74 -78.5t144 -29.5q96 0 148.5 31.5t77 81.5t28.5 114.5t4 132.5v895h156v-887q0 -78 -6 -166t-46 -164.5t-125 -127t-243 -50.5q-150 0 -232.5 48.5t-121.5 121t-47.5 158.5t-8.5 164zM391 1593l371 170l74 -139 l-396 -121z" />
<glyph unicode="&#xdb;" horiz-adv-x="1116" d="M143 463v903h166v-903q0 -68 4 -131.5t28 -112.5t74 -78.5t144 -29.5q96 0 148.5 31.5t77 81.5t28.5 114.5t4 132.5v895h156v-887q0 -78 -6 -166t-46 -164.5t-125 -127t-243 -50.5q-150 0 -232.5 48.5t-121.5 121t-47.5 158.5t-8.5 164zM180 1513l332 228l332 -228 l-150 -26l-182 106l-182 -106z" />
<glyph unicode="&#xdc;" horiz-adv-x="1116" d="M143 463v903h166v-903q0 -68 4 -131.5t28 -112.5t74 -78.5t144 -29.5q96 0 148.5 31.5t77 81.5t28.5 114.5t4 132.5v895h156v-887q0 -78 -6 -166t-46 -164.5t-125 -127t-243 -50.5q-150 0 -232.5 48.5t-121.5 121t-47.5 158.5t-8.5 164zM299 1610q0 41 30.5 71.5 t76.5 30.5q47 0 77.5 -29.5t30.5 -72.5q0 -53 -36.5 -78t-69.5 -25q-16 0 -36 6.5t-36.5 18.5t-26.5 31.5t-10 46.5zM612 1610q0 43 32 72.5t77 29.5t75.5 -29.5t30.5 -72.5q0 -51 -36.5 -77t-69.5 -26q-16 0 -35.5 6.5t-36 18.5t-27 31.5t-10.5 46.5z" />
<glyph unicode="&#xdd;" horiz-adv-x="802" d="M-59 1366h176l299 -629l295 629h151l-377 -788v-578h-166v578zM340 1593l371 170l73 -139l-395 -121z" />
<glyph unicode="&#xde;" horiz-adv-x="976" d="M143 0v1366h166v-233h127q145 0 237.5 -27t153.5 -92q59 -66 83 -143.5t24 -149.5q0 -104 -43 -192.5t-121 -139.5q-39 -25 -82 -38t-87 -19t-86 -7t-79 -1h-127v-324h-166zM309 461h127q53 0 110.5 4t105.5 28.5t79 78t31 151.5q0 78 -20.5 125t-41.5 72q-23 29 -47 44 t-56 22t-71 8t-90 1h-127v-534z" />
<glyph unicode="&#xdf;" horiz-adv-x="976" d="M10 793v122h125v91q0 47 6 93t21.5 91t44.5 88q33 49 78 77.5t88 43t79.5 18.5t55.5 4q66 0 124 -20.5t103 -58t70.5 -90t25.5 -115.5q0 -119 -88 -194t-260 -112q6 -12 11.5 -22t20.5 -22.5t44 -28t80 -39.5q43 -23 96 -52.5t100.5 -74.5t79 -107.5t31.5 -146.5 q0 -53 -16.5 -116.5t-57.5 -119t-109.5 -93.5t-172.5 -38q-57 0 -100.5 11.5t-79.5 23.5l39 119q59 -23 99 -26t48 -3q86 0 141.5 62.5t55.5 167.5q0 55 -16.5 94t-45.5 68.5t-69.5 54t-90.5 51.5q-109 57 -155.5 106.5t-46.5 118.5q0 29 5 49.5t11 36.5q43 8 94 22.5 t96.5 39t76 63.5t30.5 98q0 88 -54.5 133.5t-129.5 45.5q-115 0 -172 -103q-31 -53 -36 -135t-5 -154v-991h-150v869h-125z" />
<glyph unicode="&#xe0;" horiz-adv-x="942" d="M82 274q0 63 19.5 122t56.5 104q57 68 149 98.5t217 30.5q43 0 74 -2t59 -6v43q0 27 -3 69.5t-20.5 82.5t-56 68.5t-108.5 28.5q-59 0 -96 -18t-58.5 -45t-32 -53.5t-14.5 -42.5l-147 24q4 18 11 45t24.5 56.5t48.5 60.5t80 55q23 10 70.5 26.5t123.5 16.5 q92 0 160 -29.5t106 -76.5q45 -55 53.5 -140t8.5 -171v-297q0 -76 1 -125t2 -83t5 -59.5t10 -56.5h-143q-8 55 -10 90t-2 88q-16 -31 -37 -66.5t-54.5 -66.5t-81.5 -52.5t-118 -21.5q-133 0 -215 81t-82 222zM160 1366l104 113l305 -254l-69 -74zM240 270q0 -78 39.5 -126 t128.5 -48q76 0 126 38t80 91q37 70 42 132.5t1 144.5q-35 6 -58.5 9t-57.5 3q-156 0 -228.5 -60.5t-72.5 -183.5z" />
<glyph unicode="&#xe1;" horiz-adv-x="942" d="M82 274q0 63 19.5 122t56.5 104q57 68 149 98.5t217 30.5q43 0 74 -2t59 -6v43q0 27 -3 69.5t-20.5 82.5t-56 68.5t-108.5 28.5q-59 0 -96 -18t-58.5 -45t-32 -53.5t-14.5 -42.5l-147 24q4 18 11 45t24.5 56.5t48.5 60.5t80 55q23 10 70.5 26.5t123.5 16.5 q92 0 160 -29.5t106 -76.5q45 -55 53.5 -140t8.5 -171v-297q0 -76 1 -125t2 -83t5 -59.5t10 -56.5h-143q-8 55 -10 90t-2 88q-16 -31 -37 -66.5t-54.5 -66.5t-81.5 -52.5t-118 -21.5q-133 0 -215 81t-82 222zM240 270q0 -78 39.5 -126t128.5 -48q76 0 126 38t80 91 q37 70 42 132.5t1 144.5q-35 6 -58.5 9t-57.5 3q-156 0 -228.5 -60.5t-72.5 -183.5zM373 1225l305 254l104 -113l-340 -215z" />
<glyph unicode="&#xe2;" horiz-adv-x="942" d="M82 274q0 63 19.5 122t56.5 104q57 68 149 98.5t217 30.5q43 0 74 -2t59 -6v43q0 27 -3 69.5t-20.5 82.5t-56 68.5t-108.5 28.5q-59 0 -96 -18t-58.5 -45t-32 -53.5t-14.5 -42.5l-147 24q4 18 11 45t24.5 56.5t48.5 60.5t80 55q23 10 70.5 26.5t123.5 16.5 q92 0 160 -29.5t106 -76.5q45 -55 53.5 -140t8.5 -171v-297q0 -76 1 -125t2 -83t5 -59.5t10 -56.5h-143q-8 55 -10 90t-2 88q-16 -31 -37 -66.5t-54.5 -66.5t-81.5 -52.5t-118 -21.5q-133 0 -215 81t-82 222zM150 1192l321 242l322 -242l-146 -27l-176 125l-176 -125z M240 270q0 -78 39.5 -126t128.5 -48q76 0 126 38t80 91q37 70 42 132.5t1 144.5q-35 6 -58.5 9t-57.5 3q-156 0 -228.5 -60.5t-72.5 -183.5z" />
<glyph unicode="&#xe3;" horiz-adv-x="942" d="M82 274q0 63 19.5 122t56.5 104q57 68 149 98.5t217 30.5q43 0 74 -2t59 -6v43q0 27 -3 69.5t-20.5 82.5t-56 68.5t-108.5 28.5q-59 0 -96 -18t-58.5 -45t-32 -53.5t-14.5 -42.5l-147 24q4 18 11 45t24.5 56.5t48.5 60.5t80 55q23 10 70.5 26.5t123.5 16.5 q92 0 160 -29.5t106 -76.5q45 -55 53.5 -140t8.5 -171v-297q0 -76 1 -125t2 -83t5 -59.5t10 -56.5h-143q-8 55 -10 90t-2 88q-16 -31 -37 -66.5t-54.5 -66.5t-81.5 -52.5t-118 -21.5q-133 0 -215 81t-82 222zM178 1237q25 53 50.5 85t50 48t47 21.5t41.5 5.5q29 0 54 -9.5 t73 -41.5q39 -29 60 -37.5t40 -8.5q35 0 53.5 24t32.5 54l84 -49q-12 -25 -28.5 -51.5t-39 -49t-51.5 -37.5t-67 -15q-25 0 -53.5 9t-78.5 44q-39 29 -57 36t-33 7q-20 0 -35.5 -9.5t-26.5 -22.5t-18.5 -27.5t-13.5 -24.5zM240 270q0 -78 39.5 -126t128.5 -48q76 0 126 38 t80 91q37 70 42 132.5t1 144.5q-35 6 -58.5 9t-57.5 3q-156 0 -228.5 -60.5t-72.5 -183.5z" />
<glyph unicode="&#xe4;" horiz-adv-x="942" d="M82 274q0 63 19.5 122t56.5 104q57 68 149 98.5t217 30.5q43 0 74 -2t59 -6v43q0 27 -3 69.5t-20.5 82.5t-56 68.5t-108.5 28.5q-59 0 -96 -18t-58.5 -45t-32 -53.5t-14.5 -42.5l-147 24q4 18 11 45t24.5 56.5t48.5 60.5t80 55q23 10 70.5 26.5t123.5 16.5 q92 0 160 -29.5t106 -76.5q45 -55 53.5 -140t8.5 -171v-297q0 -76 1 -125t2 -83t5 -59.5t10 -56.5h-143q-8 55 -10 90t-2 88q-16 -31 -37 -66.5t-54.5 -66.5t-81.5 -52.5t-118 -21.5q-133 0 -215 81t-82 222zM215 1276q0 41 29.5 69.5t74.5 28.5t75 -28.5t30 -69.5 q0 -47 -35 -72.5t-70 -25.5t-69.5 25.5t-34.5 72.5zM240 270q0 -78 39.5 -126t128.5 -48q76 0 126 38t80 91q37 70 42 132.5t1 144.5q-35 6 -58.5 9t-57.5 3q-156 0 -228.5 -60.5t-72.5 -183.5zM518 1276q0 41 30 69.5t75 28.5t74.5 -28.5t29.5 -69.5q0 -47 -34.5 -72.5 t-69.5 -25.5q-37 0 -71 25.5t-34 72.5z" />
<glyph unicode="&#xe5;" horiz-adv-x="942" d="M82 274q0 63 19.5 122t56.5 104q57 68 149 98.5t217 30.5q43 0 74 -2t59 -6v43q0 27 -3 69.5t-20.5 82.5t-56 68.5t-108.5 28.5q-59 0 -96 -18t-58.5 -45t-32 -53.5t-14.5 -42.5l-147 24q4 18 11 45t24.5 56.5t48.5 60.5t80 55q23 10 70.5 26.5t123.5 16.5 q92 0 160 -29.5t106 -76.5q45 -55 53.5 -140t8.5 -171v-297q0 -76 1 -125t2 -83t5 -59.5t10 -56.5h-143q-8 55 -10 90t-2 88q-16 -31 -37 -66.5t-54.5 -66.5t-81.5 -52.5t-118 -21.5q-133 0 -215 81t-82 222zM240 270q0 -78 39.5 -126t128.5 -48q76 0 126 38t80 91 q37 70 42 132.5t1 144.5q-35 6 -58.5 9t-57.5 3q-156 0 -228.5 -60.5t-72.5 -183.5zM311 1300q0 41 15.5 76t41 59.5t58.5 38t70 13.5q72 0 127 -51.5t55 -135.5q0 -45 -17.5 -78.5t-43 -57t-58 -35t-63.5 -11.5t-64 11.5t-59.5 35t-44 57t-17.5 78.5zM401 1303 q0 -45 30 -70t65 -25q33 0 62.5 24.5t29.5 70.5q0 41 -29 67.5t-63 26.5q-37 0 -66 -27t-29 -67z" />
<glyph unicode="&#xe6;" horiz-adv-x="1466" d="M82 274q0 61 19.5 121t56.5 105q109 129 364 129q43 0 73 -2t58 -6q0 43 -2 93t-18.5 95t-54 74.5t-107.5 29.5q-59 0 -96 -18t-58.5 -45t-31 -53.5t-13.5 -42.5l-147 24q20 98 72.5 150.5t111 77t107.5 28.5t61 4q70 0 118 -15t82 -36.5t54.5 -46.5t32.5 -43 q10 14 30.5 37.5t53.5 46.5t80 40t108 17q170 0 263.5 -134t97.5 -419h-596q0 -23 1 -59.5t7 -79.5t20.5 -88t40 -81t66.5 -58.5t100 -22.5q53 0 89 20.5t58.5 51.5t36 66.5t21.5 64.5l141 -33q-25 -88 -62.5 -145.5t-83.5 -90t-99.5 -46t-108.5 -13.5q-78 0 -132 23.5 t-91 56.5t-57.5 68t-32.5 57q-16 -27 -41 -62.5t-63 -67.5t-93 -53.5t-135 -21.5t-137.5 26t-94 69t-53 97t-16.5 111zM240 270q0 -80 39.5 -127t128.5 -47q33 0 77.5 15.5t84.5 58.5t66 123t17 209q-35 6 -57.5 9t-56.5 3q-145 0 -222 -56.5t-77 -187.5zM809 608h418 q0 57 -10.5 111.5t-34 97.5t-63.5 69.5t-99 26.5q-57 0 -96 -27.5t-62.5 -71.5t-36 -98t-16.5 -108z" />
<glyph unicode="&#xe7;" horiz-adv-x="837" d="M84 492q0 102 16.5 200.5t58.5 175t114.5 123.5t187.5 47q98 0 158.5 -34.5t96.5 -86t51 -112t26 -109.5l-152 -30q-6 47 -15.5 92t-28.5 79.5t-52 55t-88 20.5q-53 0 -92 -21.5t-65 -73.5t-38 -137t-12 -210q0 -43 3 -107.5t23.5 -124t63.5 -101.5t121 -42q57 0 91 24.5 t52.5 62.5t25.5 81t11 80l152 -20q-12 -74 -28.5 -134.5t-51.5 -105.5t-91.5 -74.5t-148.5 -38.5l-18 -61q76 2 116.5 -16.5t59 -43t21.5 -48t3 -29.5q0 -61 -52 -112.5t-150 -51.5q-66 0 -107 19.5t-70 35.5l23 66q31 -10 64.5 -18.5t74.5 -8.5q8 0 22.5 1t30 7t26.5 18.5 t11 37.5q0 39 -25.5 51t-39.5 16q-4 0 -20.5 1t-37 2t-38 2t-21.5 1l45 135q-98 14 -158.5 70.5t-93.5 131.5t-44 159t-11 156z" />
<glyph unicode="&#xe8;" horiz-adv-x="907" d="M84 489q0 141 31.5 245t85 171.5t125 100t151.5 32.5q170 0 263.5 -134t97.5 -419h-596q0 -23 1 -59.5t7 -79.5t20.5 -88t40 -81t66.5 -58.5t100 -22.5q53 0 89 20.5t58.5 51.5t36 66.5t21.5 64.5l141 -33q-25 -88 -62.5 -145.5t-83.5 -90t-99.5 -46t-108.5 -13.5 q-109 0 -182.5 44t-118.5 116t-64.5 166t-19.5 192zM143 1366l105 113l305 -254l-70 -74zM250 608h418q0 57 -10.5 111.5t-34 97.5t-63.5 69.5t-99 26.5q-57 0 -96 -27.5t-62.5 -71.5t-36 -98t-16.5 -108z" />
<glyph unicode="&#xe9;" horiz-adv-x="907" d="M84 489q0 141 31.5 245t85 171.5t125 100t151.5 32.5q170 0 263.5 -134t97.5 -419h-596q0 -23 1 -59.5t7 -79.5t20.5 -88t40 -81t66.5 -58.5t100 -22.5q53 0 89 20.5t58.5 51.5t36 66.5t21.5 64.5l141 -33q-25 -88 -62.5 -145.5t-83.5 -90t-99.5 -46t-108.5 -13.5 q-109 0 -182.5 44t-118.5 116t-64.5 166t-19.5 192zM250 608h418q0 57 -10.5 111.5t-34 97.5t-63.5 69.5t-99 26.5q-57 0 -96 -27.5t-62.5 -71.5t-36 -98t-16.5 -108zM356 1225l306 254l104 -113l-340 -215z" />
<glyph unicode="&#xea;" horiz-adv-x="907" d="M84 489q0 141 31.5 245t85 171.5t125 100t151.5 32.5q170 0 263.5 -134t97.5 -419h-596q0 -23 1 -59.5t7 -79.5t20.5 -88t40 -81t66.5 -58.5t100 -22.5q53 0 89 20.5t58.5 51.5t36 66.5t21.5 64.5l141 -33q-25 -88 -62.5 -145.5t-83.5 -90t-99.5 -46t-108.5 -13.5 q-109 0 -182.5 44t-118.5 116t-64.5 166t-19.5 192zM133 1192l322 242l321 -242l-145 -27l-176 125l-176 -125zM250 608h418q0 57 -10.5 111.5t-34 97.5t-63.5 69.5t-99 26.5q-57 0 -96 -27.5t-62.5 -71.5t-36 -98t-16.5 -108z" />
<glyph unicode="&#xeb;" horiz-adv-x="907" d="M84 489q0 141 31.5 245t85 171.5t125 100t151.5 32.5q170 0 263.5 -134t97.5 -419h-596q0 -23 1 -59.5t7 -79.5t20.5 -88t40 -81t66.5 -58.5t100 -22.5q53 0 89 20.5t58.5 51.5t36 66.5t21.5 64.5l141 -33q-25 -88 -62.5 -145.5t-83.5 -90t-99.5 -46t-108.5 -13.5 q-109 0 -182.5 44t-118.5 116t-64.5 166t-19.5 192zM199 1276q0 41 29.5 69.5t74.5 28.5t75 -28.5t30 -69.5q0 -47 -35 -72.5t-70 -25.5t-69.5 25.5t-34.5 72.5zM250 608h418q0 57 -10.5 111.5t-34 97.5t-63.5 69.5t-99 26.5q-57 0 -96 -27.5t-62.5 -71.5t-36 -98 t-16.5 -108zM502 1276q0 41 29.5 69.5t74.5 28.5t75 -28.5t30 -69.5q0 -47 -35 -72.5t-70 -25.5q-37 0 -70.5 25.5t-33.5 72.5z" />
<glyph unicode="&#xec;" horiz-adv-x="417" d="M-102 1366l104 113l305 -254l-69 -74zM135 0v1010h150v-1010h-150z" />
<glyph unicode="&#xed;" horiz-adv-x="417" d="M111 1225l305 254l104 -113l-340 -215zM135 0v1010h150v-1010h-150z" />
<glyph unicode="&#xee;" horiz-adv-x="417" d="M-113 1192l322 242l321 -242l-145 -27l-176 125l-176 -125zM135 0v1010h150v-1010h-150z" />
<glyph unicode="&#xef;" horiz-adv-x="417" d="M-47 1276q0 41 29.5 69.5t74.5 28.5t75 -28.5t30 -69.5q0 -47 -35 -72.5t-70 -25.5t-69.5 25.5t-34.5 72.5zM135 0v1010h150v-1010h-150zM256 1276q0 41 29.5 69.5t74.5 28.5t75 -28.5t30 -69.5q0 -47 -35 -72.5t-70 -25.5q-37 0 -70.5 25.5t-33.5 72.5z" />
<glyph unicode="&#xf0;" horiz-adv-x="907" d="M66 504q0 172 38.5 277.5t94 162.5t115 75.5t100.5 18.5q59 0 91 -17t58 -40q-23 57 -50.5 108.5t-55.5 102.5l-242 -127l-63 111l239 124q-27 41 -53 80l127 68l55 -80l236 125l63 -111l-231 -120q51 -86 98 -179.5t81 -190.5t54.5 -197.5t20.5 -200.5q0 -68 -12.5 -157 t-53.5 -171t-117.5 -138.5t-207.5 -56.5q-119 0 -194 50.5t-118 129t-58 173t-15 180.5zM231 504q0 -43 5.5 -111.5t27 -135.5t66.5 -114t125 -47t124 47t65.5 114t26.5 135.5t5 111.5q0 25 -1 63.5t-8.5 84.5t-20.5 92.5t-37.5 84t-62.5 61t-91 23.5q-82 0 -127 -49 t-66.5 -116.5t-26 -136t-4.5 -107.5z" />
<glyph unicode="&#xf1;" horiz-adv-x="942" d="M135 0v1010h139v-156q10 23 26.5 54.5t46.5 60t75 49t113 20.5q86 0 149.5 -36.5t91.5 -98.5q23 -47 27 -110.5t4 -149.5v-643h-150v623q0 63 -2 116.5t-17 92t-47 60t-89 21.5q-45 0 -85 -17t-69 -60t-46 -114t-17 -177v-545h-150zM178 1237q25 53 50.5 85t50 48 t47 21.5t41.5 5.5q29 0 54 -9.5t73 -41.5q39 -29 60 -37.5t40 -8.5q35 0 53.5 24t32.5 54l84 -49q-12 -25 -28.5 -51.5t-39 -49t-51.5 -37.5t-67 -15q-25 0 -53.5 9t-78.5 44q-39 29 -57 36t-33 7q-20 0 -35.5 -9.5t-26.5 -22.5t-18.5 -27.5t-13.5 -24.5z" />
<glyph unicode="&#xf2;" horiz-adv-x="942" d="M84 504q0 51 5 110.5t20.5 119t42 114.5t69.5 97t105.5 67.5t148.5 25.5q119 0 193.5 -51t116.5 -130t57.5 -170t15.5 -171q0 -68 -10 -161t-49 -178t-117 -145.5t-213 -60.5q-117 0 -191.5 50.5t-117.5 128t-59.5 172t-16.5 182.5zM160 1366l104 113l305 -254l-69 -74z M250 504q0 -43 5 -111.5t26.5 -135.5t65.5 -114t124 -47t124 47t65.5 114t26.5 135.5t5 111.5q0 25 -1 63.5t-8 84.5t-20.5 92.5t-38 84t-62.5 61t-91 23.5q-80 0 -125 -49t-66.5 -116.5t-25.5 -136t-4 -107.5z" />
<glyph unicode="&#xf3;" horiz-adv-x="942" d="M84 504q0 51 5 110.5t20.5 119t42 114.5t69.5 97t105.5 67.5t148.5 25.5q119 0 193.5 -51t116.5 -130t57.5 -170t15.5 -171q0 -68 -10 -161t-49 -178t-117 -145.5t-213 -60.5q-117 0 -191.5 50.5t-117.5 128t-59.5 172t-16.5 182.5zM250 504q0 -43 5 -111.5t26.5 -135.5 t65.5 -114t124 -47t124 47t65.5 114t26.5 135.5t5 111.5q0 25 -1 63.5t-8 84.5t-20.5 92.5t-38 84t-62.5 61t-91 23.5q-80 0 -125 -49t-66.5 -116.5t-25.5 -136t-4 -107.5zM373 1225l305 254l104 -113l-340 -215z" />
<glyph unicode="&#xf4;" horiz-adv-x="942" d="M84 504q0 51 5 110.5t20.5 119t42 114.5t69.5 97t105.5 67.5t148.5 25.5q119 0 193.5 -51t116.5 -130t57.5 -170t15.5 -171q0 -68 -10 -161t-49 -178t-117 -145.5t-213 -60.5q-117 0 -191.5 50.5t-117.5 128t-59.5 172t-16.5 182.5zM150 1192l321 242l322 -242l-146 -27 l-176 125l-176 -125zM250 504q0 -43 5 -111.5t26.5 -135.5t65.5 -114t124 -47t124 47t65.5 114t26.5 135.5t5 111.5q0 25 -1 63.5t-8 84.5t-20.5 92.5t-38 84t-62.5 61t-91 23.5q-80 0 -125 -49t-66.5 -116.5t-25.5 -136t-4 -107.5z" />
<glyph unicode="&#xf5;" horiz-adv-x="942" d="M84 504q0 51 5 110.5t20.5 119t42 114.5t69.5 97t105.5 67.5t148.5 25.5q119 0 193.5 -51t116.5 -130t57.5 -170t15.5 -171q0 -68 -10 -161t-49 -178t-117 -145.5t-213 -60.5q-117 0 -191.5 50.5t-117.5 128t-59.5 172t-16.5 182.5zM178 1237q25 53 50.5 85t50 48 t47 21.5t41.5 5.5q29 0 54 -9.5t73 -41.5q39 -29 60 -37.5t40 -8.5q35 0 53.5 24t32.5 54l84 -49q-12 -25 -28.5 -51.5t-39 -49t-51.5 -37.5t-67 -15q-25 0 -53.5 9t-78.5 44q-39 29 -57 36t-33 7q-20 0 -35.5 -9.5t-26.5 -22.5t-18.5 -27.5t-13.5 -24.5zM250 504 q0 -43 5 -111.5t26.5 -135.5t65.5 -114t124 -47t124 47t65.5 114t26.5 135.5t5 111.5q0 25 -1 63.5t-8 84.5t-20.5 92.5t-38 84t-62.5 61t-91 23.5q-80 0 -125 -49t-66.5 -116.5t-25.5 -136t-4 -107.5z" />
<glyph unicode="&#xf6;" horiz-adv-x="942" d="M84 504q0 51 5 110.5t20.5 119t42 114.5t69.5 97t105.5 67.5t148.5 25.5q119 0 193.5 -51t116.5 -130t57.5 -170t15.5 -171q0 -68 -10 -161t-49 -178t-117 -145.5t-213 -60.5q-117 0 -191.5 50.5t-117.5 128t-59.5 172t-16.5 182.5zM215 1276q0 41 29.5 69.5t74.5 28.5 t75 -28.5t30 -69.5q0 -47 -35 -72.5t-70 -25.5t-69.5 25.5t-34.5 72.5zM250 504q0 -43 5 -111.5t26.5 -135.5t65.5 -114t124 -47t124 47t65.5 114t26.5 135.5t5 111.5q0 25 -1 63.5t-8 84.5t-20.5 92.5t-38 84t-62.5 61t-91 23.5q-80 0 -125 -49t-66.5 -116.5t-25.5 -136 t-4 -107.5zM518 1276q0 41 30 69.5t75 28.5t74.5 -28.5t29.5 -69.5q0 -47 -34.5 -72.5t-69.5 -25.5q-37 0 -71 25.5t-34 72.5z" />
<glyph unicode="&#xf7;" d="M104 621v124h838v-124h-838zM438 319v191h170v-191h-170zM438 856v191h170v-191h-170z" />
<glyph unicode="&#xf8;" horiz-adv-x="942" d="M84 506q0 70 12.5 161t52 174t115.5 140t203 57q53 0 105.5 -12t99.5 -41l51 102h111l-86 -169q66 -86 88 -190.5t22 -213.5q0 -68 -10 -161t-50 -178t-118 -144.5t-213 -59.5q-66 0 -107 13.5t-73 29.5l-58 -112h-108l88 176q-72 90 -98.5 200.5t-26.5 227.5zM236 508 q0 -72 5 -121t12 -84t16.5 -57.5t15.5 -40.5l317 678q-37 27 -76 31t-51 4q-74 0 -121 -38t-73.5 -96.5t-35.5 -132t-9 -143.5zM356 121q25 -16 52.5 -22.5t54.5 -6.5q74 0 122 36t74.5 94.5t37 132t10.5 151.5q0 125 -13.5 187.5t-23.5 97.5z" />
<glyph unicode="&#xf9;" horiz-adv-x="942" d="M135 371v639h150v-637q0 -63 2 -114.5t16 -87.5t46 -55.5t89 -19.5q82 0 127 49.5t65.5 119t23.5 147t3 137.5v461h150v-1010h-139v150q-12 -25 -31 -56t-48.5 -58.5t-74.5 -46t-111 -18.5q-18 0 -47.5 3t-63.5 16.5t-66.5 40t-55.5 73.5q-12 27 -19.5 63t-10.5 74 t-4 72.5t-1 57.5zM160 1366l104 113l305 -254l-69 -74z" />
<glyph unicode="&#xfa;" horiz-adv-x="942" d="M135 371v639h150v-637q0 -63 2 -114.5t16 -87.5t46 -55.5t89 -19.5q82 0 127 49.5t65.5 119t23.5 147t3 137.5v461h150v-1010h-139v150q-12 -25 -31 -56t-48.5 -58.5t-74.5 -46t-111 -18.5q-18 0 -47.5 3t-63.5 16.5t-66.5 40t-55.5 73.5q-12 27 -19.5 63t-10.5 74 t-4 72.5t-1 57.5zM373 1225l305 254l104 -113l-340 -215z" />
<glyph unicode="&#xfb;" horiz-adv-x="942" d="M135 371v639h150v-637q0 -63 2 -114.5t16 -87.5t46 -55.5t89 -19.5q82 0 127 49.5t65.5 119t23.5 147t3 137.5v461h150v-1010h-139v150q-12 -25 -31 -56t-48.5 -58.5t-74.5 -46t-111 -18.5q-18 0 -47.5 3t-63.5 16.5t-66.5 40t-55.5 73.5q-12 27 -19.5 63t-10.5 74 t-4 72.5t-1 57.5zM150 1192l321 242l322 -242l-146 -27l-176 125l-176 -125z" />
<glyph unicode="&#xfc;" horiz-adv-x="942" d="M135 371v639h150v-637q0 -63 2 -114.5t16 -87.5t46 -55.5t89 -19.5q82 0 127 49.5t65.5 119t23.5 147t3 137.5v461h150v-1010h-139v150q-12 -25 -31 -56t-48.5 -58.5t-74.5 -46t-111 -18.5q-18 0 -47.5 3t-63.5 16.5t-66.5 40t-55.5 73.5q-12 27 -19.5 63t-10.5 74 t-4 72.5t-1 57.5zM215 1276q0 41 29.5 69.5t74.5 28.5t75 -28.5t30 -69.5q0 -47 -35 -72.5t-70 -25.5t-69.5 25.5t-34.5 72.5zM518 1276q0 41 30 69.5t75 28.5t74.5 -28.5t29.5 -69.5q0 -47 -34.5 -72.5t-69.5 -25.5q-37 0 -71 25.5t-34 72.5z" />
<glyph unicode="&#xfd;" horiz-adv-x="768" d="M39 1010h149l207 -756l223 756h144l-348 -1112q-18 -55 -38 -103.5t-49.5 -84.5t-71.5 -55.5t-105 -19.5q-31 0 -53.5 3.5t-45.5 7.5v123q16 -4 31.5 -6.5t38.5 -2.5q43 0 70.5 11.5t49 42t40 86t43.5 145.5zM287 1225l305 254l104 -113l-340 -215z" />
<glyph unicode="&#xfe;" horiz-adv-x="976" d="M135 -342v1708h150v-532q12 27 29.5 61.5t47 64t72.5 50t107 20.5q78 0 142.5 -34.5t111.5 -101.5t72.5 -162t25.5 -214q0 -25 -3 -75t-15.5 -110.5t-35 -123t-61.5 -113.5t-98 -83.5t-141 -32.5q-55 0 -95.5 12t-69 32.5t-50 48t-39.5 58.5v-473h-150zM285 428 q0 -63 7 -121.5t48 -113.5q31 -41 72 -65t94 -24q51 0 90 21.5t72 79.5q37 66 48 152.5t11 152.5q0 180 -55.5 287.5t-159.5 107.5q-59 0 -101 -37t-71 -88t-42 -106.5t-13 -93.5v-152z" />
<glyph unicode="&#xff;" horiz-adv-x="768" d="M39 1010h149l207 -756l223 756h144l-348 -1112q-18 -55 -38 -103.5t-49.5 -84.5t-71.5 -55.5t-105 -19.5q-31 0 -53.5 3.5t-45.5 7.5v123q16 -4 31.5 -6.5t38.5 -2.5q43 0 70.5 11.5t49 42t40 86t43.5 145.5zM129 1276q0 41 29.5 69.5t74.5 28.5t75 -28.5t30 -69.5 q0 -47 -35 -72.5t-70 -25.5t-69.5 25.5t-34.5 72.5zM432 1276q0 41 30 69.5t75 28.5t74.5 -28.5t29.5 -69.5q0 -47 -34.5 -72.5t-69.5 -25.5q-37 0 -71 25.5t-34 72.5z" />
<glyph unicode="&#x152;" horiz-adv-x="1675" d="M90 672q0 35 3 102.5t16.5 147t43 163.5t82 153t133.5 113t197 44q76 0 129.5 -18.5t89 -44t57 -55.5t38.5 -54v143h747v-137h-590v-453h465v-137h-465v-502h598v-137h-755v164q-18 -29 -42 -62.5t-61 -62.5t-91 -48.5t-134 -19.5q-115 0 -193.5 44t-130 113t-79 151.5 t-41 160.5t-15.5 140.5t-2 91.5zM262 653q0 -287 80 -415.5t240 -128.5q84 0 139 31.5t88 74.5t48 85t22 62v678q-6 18 -22.5 55.5t-49.5 73t-88 62t-137 26.5q-20 0 -48 -3t-59 -14t-60.5 -33.5t-54.5 -61.5q-31 -49 -50 -109.5t-29.5 -125t-14.5 -131t-4 -126.5z" />
<glyph unicode="&#x153;" horiz-adv-x="1501" d="M84 504q0 33 3 85t15.5 111.5t36 120t65.5 108.5t105.5 78.5t153.5 30.5q74 0 127 -20.5t88 -48t56.5 -58t33.5 -51.5q14 23 38.5 53.5t60.5 58t85 47t117 19.5q57 0 104.5 -15t83 -38.5t60 -53.5t41.5 -61q49 -104 58 -197t14 -188h-588q0 -35 4 -100.5t25.5 -130 t68.5 -111.5t133 -47q51 0 86 20.5t58.5 51.5t36 65.5t22.5 65.5l139 -33q-10 -37 -29.5 -88t-58.5 -97t-102.5 -78t-159.5 -32q-76 0 -130 20.5t-90 50.5t-57.5 60.5t-33.5 51.5q-35 -63 -76 -100.5t-80 -55.5t-75 -22.5t-62 -4.5q-86 0 -147.5 29t-103.5 75t-66.5 104.5 t-38 117.5t-17.5 113.5t-4 93.5zM250 504q0 -27 2 -68t8 -87t19.5 -91t38 -81t60.5 -58.5t89 -22.5q82 0 126 51.5t64.5 120t23.5 136t3 100.5q0 31 -3 99.5t-23.5 137t-64.5 120.5t-126 52q-80 0 -124 -51t-64.5 -118.5t-24.5 -136t-4 -103.5zM850 608h412 q0 55 -10.5 109.5t-33 98.5t-62.5 70.5t-99 26.5q-55 0 -92 -25.5t-60.5 -68.5t-36 -98t-18.5 -113z" />
<glyph unicode="&#x178;" horiz-adv-x="802" d="M-59 1366h176l299 -629l295 629h151l-377 -788v-578h-166v578zM156 1610q0 41 30.5 71.5t75.5 30.5q47 0 78 -29.5t31 -72.5q0 -53 -37 -78t-70 -25q-16 0 -35.5 6.5t-36 18.5t-26.5 31.5t-10 46.5zM469 1610q0 43 31.5 72.5t77.5 29.5q45 0 75.5 -29.5t30.5 -72.5 q0 -51 -36.5 -77t-69.5 -26q-16 0 -36 6.5t-36.5 18.5t-26.5 31.5t-10 46.5z" />
<glyph unicode="&#x2c6;" horiz-adv-x="1024" d="M190 1192l322 242l322 -242l-146 -27l-176 125l-176 -125z" />
<glyph unicode="&#x2dc;" horiz-adv-x="1024" d="M219 1237q25 53 50.5 85t50 48t47 21.5t41.5 5.5q29 0 54 -9.5t73 -41.5q39 -29 60 -37.5t40 -8.5q35 0 53.5 24t32.5 54l84 -49q-12 -25 -28.5 -51.5t-39 -49t-51.5 -37.5t-68 -15q-25 0 -53 9t-78 44q-39 29 -57 36t-33 7q-20 0 -35.5 -9.5t-26.5 -22.5t-18.5 -27.5 t-13.5 -24.5z" />
<glyph unicode="&#x2000;" horiz-adv-x="914" />
<glyph unicode="&#x2001;" horiz-adv-x="1829" />
<glyph unicode="&#x2002;" horiz-adv-x="914" />
<glyph unicode="&#x2003;" horiz-adv-x="1829" />
<glyph unicode="&#x2004;" horiz-adv-x="609" />
<glyph unicode="&#x2005;" horiz-adv-x="457" />
<glyph unicode="&#x2006;" horiz-adv-x="304" />
<glyph unicode="&#x2007;" horiz-adv-x="304" />
<glyph unicode="&#x2008;" horiz-adv-x="228" />
<glyph unicode="&#x2009;" horiz-adv-x="365" />
<glyph unicode="&#x200a;" horiz-adv-x="101" />
<glyph unicode="&#x2010;" horiz-adv-x="593" d="M72 446v123h450v-123h-450z" />
<glyph unicode="&#x2011;" horiz-adv-x="593" d="M72 446v123h450v-123h-450z" />
<glyph unicode="&#x2012;" horiz-adv-x="593" d="M72 446v123h450v-123h-450z" />
<glyph unicode="&#x2013;" horiz-adv-x="802" d="M63 446v123h676v-123h-676z" />
<glyph unicode="&#x2014;" horiz-adv-x="1255" d="M63 446v123h1129v-123h-1129z" />
<glyph unicode="&#x2018;" horiz-adv-x="417" d="M98 940v201l133 248h91l-121 -236h84v-213h-187z" />
<glyph unicode="&#x2019;" horiz-adv-x="417" d="M98 915l121 236h-84v215h187v-203l-134 -248h-90z" />
<glyph unicode="&#x201a;" horiz-adv-x="417" d="M98 -236l121 236h-84v215h187v-203l-134 -248h-90z" />
<glyph unicode="&#x201c;" horiz-adv-x="698" d="M98 940v201l133 248h91l-121 -236h84v-213h-187zM377 940v201l133 248h90l-121 -236h84v-213h-186z" />
<glyph unicode="&#x201d;" horiz-adv-x="698" d="M98 915l121 236h-84v215h187v-203l-134 -248h-90zM377 915l121 236h-84v215h186v-203l-133 -248h-90z" />
<glyph unicode="&#x201e;" horiz-adv-x="698" d="M98 -236l121 236h-84v215h187v-203l-134 -248h-90zM377 -236l121 236h-84v215h186v-203l-133 -248h-90z" />
<glyph unicode="&#x2022;" horiz-adv-x="202" d="M0 575v240h203v-240h-203z" />
<glyph unicode="&#x2026;" horiz-adv-x="1464" d="M152 0v221h186v-221h-186zM639 0v221h186v-221h-186zM1126 0v221h187v-221h-187z" />
<glyph unicode="&#x202f;" horiz-adv-x="365" />
<glyph unicode="&#x2039;" horiz-adv-x="452" d="M92 526l178 303h92l-94 -303l94 -303h-92z" />
<glyph unicode="&#x203a;" horiz-adv-x="452" d="M92 223l94 303l-94 303h92l178 -303l-178 -303h-92z" />
<glyph unicode="&#x205f;" horiz-adv-x="457" />
<glyph unicode="&#x20ac;" d="M-49 518l26 107h183v18v68t2 67h-211l26 107h193q10 94 35.5 185t75 163t125 117t186.5 45q98 0 164.5 -33t109.5 -88t67.5 -130t39.5 -159l-152 -16q-8 49 -21.5 102t-38 97t-64.5 73t-101 29q-74 0 -121 -39t-76.5 -96.5t-44 -125t-20.5 -124.5h467l-29 -107h-444 q-2 -35 -2 -67v-66v-20h407l-26 -107h-375q4 -59 17 -133t42 -138.5t79 -107.5t128 -43q63 0 106.5 32t69 80t39.5 105.5t21 108.5l145 -16q-12 -90 -35.5 -169t-66.5 -138.5t-113 -93.5t-174 -34q-115 0 -193 50.5t-126 128t-72.5 175t-32.5 193.5h-215z" />
<glyph unicode="&#x2122;" horiz-adv-x="1466" d="M49 1266v100h490v-100h-181v-678h-129v678h-180zM598 588v778h186l170 -627l172 625h183v-776h-119v657l-184 -657h-115l-180 659v-659h-113z" />
<glyph unicode="&#x25fc;" horiz-adv-x="1013" d="M0 0v1014h1014v-1014h-1014z" />
<glyph unicode="&#xfb01;" horiz-adv-x="907" d="M18 887v123h146q2 78 7 148.5t31.5 122.5t81 83t152.5 31q33 0 49.5 -2t38.5 -7v-122q-10 4 -20 5t-27 1q-57 0 -90 -13.5t-49 -44t-20.5 -81t-4.5 -121.5h185v-123h-185v-887h-149v887h-146zM616 1188v174h164v-174h-164zM623 0v1010h149v-1010h-149z" />
<glyph unicode="&#xfb02;" horiz-adv-x="907" d="M18 887v123h146q2 78 7 148.5t31.5 122.5t81 83t152.5 31q33 0 49.5 -2t38.5 -7v-122q-10 4 -20 5t-27 1q-57 0 -90 -13.5t-49 -44t-20.5 -81t-4.5 -121.5h185v-123h-185v-887h-149v887h-146zM623 0v1366h149v-1366h-149z" />
</font>
</defs>
</svg>
